<?xml version="1.0" encoding="utf-8" ?>
<svg baseProfile="full" height="200mm" version="1.1" viewBox="0,0,200,200" width="200mm" xmlns="http://www.w3.org/2000/svg" xmlns:ev="http://www.w3.org/2001/xml-events" xmlns:xlink="http://www.w3.org/1999/xlink"><defs /><rect fill="#1a1a1a" height="200" width="200" x="0" y="0" /><rect fill="#1a1a1a" height="200" width="180" x="10" y="0" /><text alignment-baseline="middle" fill="#e1ed5e" style="dominant-baseline: central; font-size:9.0px; font-family:Arial;" text-anchor="middle" x="100.0" y="100.0">2024</text><line stroke="#e1ed5e" stroke-width="0.3" x1="100.0" x2="100.0" y1="15.0" y2="10.0" /><path d="M 100.0 14.0 a86.0,86.0 0 0,1 42.35913384403234,11.155469271406648" fill="none" id="id109" stroke="none" /><text fill="#e1ed5e" style="font-size:6.75px; font-family:Arial;" text-anchor="middle"><textPath startOffset="22.145653131862478" xlink:href="#id109">January</textPath></text><line stroke="#e1ed5e" stroke-width="0.3" x1="143.13028292997686" x2="145.6673583964461" y1="26.7553504044142" y2="22.446841604673864" /><path d="M 143.63769802327073 25.89364864446614 a86.0,86.0 0 0,1 29.32050498858742,28.57503671076993" fill="none" id="id110" stroke="none" /><text fill="#e1ed5e" style="font-size:6.75px; font-family:Arial;" text-anchor="middle"><textPath startOffset="20.669276256404974" xlink:href="#id110">February</textPath></text><line stroke="#e1ed5e" stroke-width="0.3" x1="172.87174338648825" x2="177.1583165268699" y1="56.24261187166439" y2="53.66864786411523" /><path d="M 173.72905801456457 55.72781907015455 a86.0,86.0 0 0,1 12.242430191666344,42.057860355516425" fill="none" id="id111" stroke="none" /><text fill="#e1ed5e" style="font-size:6.75px; font-family:Arial;" text-anchor="middle"><textPath startOffset="22.145653131862474" xlink:href="#id111">March</textPath></text><path d="M 120.98066250479742 99.09900007780936 l 36.85315065809641 -1.5826328586064577 a57.88711753706831,57.88711753706831 0 0,0 0.034112914208164855,0.9931602767164849 l -36.87488825930142 0.9497663173258528" fill="red" stroke="none" /><line stroke="#e1ed5e" stroke-width="0.3" x1="184.99686870605535" x2="189.99668451229388" y1="99.2704041080226" y2="99.22748670261217" /><path d="M 185.99683186730306 99.26182062694052 a86.0,86.0 0 0,1 -10.086455211305974,41.156179273409016" fill="none" id="id112" stroke="none" /><text fill="#e1ed5e" style="font-size:6.75px; font-family:Arial;" text-anchor="middle"><textPath startOffset="21.40746469413373" xlink:href="#id112">April</textPath></text><path d="M 120.98066250479742 100.90099992219065 l 45.58288461304255 1.9575251963652418 a66.62489752909431,66.62489752909431 0 0,0 -0.058878676226605205,1.1422305892313769 l -45.542564347359374 -2.739727578973349" fill="red" stroke="none" /><path d="M 120.77682067341334 103.0534771498775 l 55.08971894589755 8.096291566386016 a76.68147870401717,76.68147870401717 0 0,0 -0.20257971519667084,1.300707092444891 l -54.94261773856261 -9.040786840762358" fill="red" stroke="none" /><path d="M 120.16314734710363 105.8691983318838 l 60.04761738324842 17.478986276910963 a83.53983782097168,83.53983782097168 0 0,0 -0.41262187643291154,1.3734840286529046 l -59.738719186811885 -18.50720790915459" fill="red" stroke="none" /><path d="M 119.83427380445688 106.89939002012753 l 59.50282141337066 20.698170060382587 a84.0,84.0 0 0,0 -0.48543931982422706,1.3578601744763141 l -59.13874192350249 -21.716565191239823" fill="red" stroke="none" /><line stroke="#e1ed5e" stroke-width="0.3" x1="174.33088141563837" x2="178.70328620479359" y1="141.23008692659167" y2="143.65538615756765" /><path d="M 175.20536237346943 141.71514677278685 a86.0,86.0 0 0,1 -30.301960400862466,31.631185727798858" fill="none" id="id113" stroke="none" /><text fill="#e1ed5e" style="font-size:6.75px; font-family:Arial;" text-anchor="middle"><textPath startOffset="22.145653131862474" xlink:href="#id113">May</textPath></text><path d="M 118.36410011445183 110.18625677009912 l 5.859288501163795 3.2500485616485206 a27.700304276146262,27.700304276146262 0 0,0 -0.2342214199142484,0.4138468063254862 l -5.8026337162281685 -3.35015213807313" fill="red" stroke="none" /><line stroke="#e1ed5e" stroke-width="0.3" x1="143.1302829299769" x2="145.66735839644613" y1="173.24464959558577" y2="177.55315839532614" /><path d="M 143.63769802327073 174.10635135553383 a86.0,86.0 0 0,1 -40.68552437913181,11.842963189579606" fill="none" id="id114" stroke="none" /><text fill="#e1ed5e" style="font-size:6.75px; font-family:Arial;" text-anchor="middle"><textPath startOffset="21.407464694133747" xlink:href="#id114">June</textPath></text><path d="M 110.34350942703117 118.27599006163325 l 23.193667704294306 40.98098845917259 a68.08914563535913,68.08914563535913 0 0,0 -1.022166613573003,0.566978589900159 l -22.486756902565208 -41.3730999645059" fill="red" stroke="none" /><path d="M 110.02825361518725 118.45085714620011 l 23.749728396807164 43.69682526246707 a70.733913348345,70.733913348345 0 0,0 -1.0718248728870552,0.5706863740363077 l -22.996114708133554 -44.098082104225945" fill="red" stroke="none" /><path d="M 109.71004243097381 118.62028667847754 l 28.37075022712166 54.404654384142326 a82.35768808476816,82.35768808476816 0 0,0 -1.2591815107915576,0.6429470514336447 l -27.432641494616522 -54.883659387248805" fill="red" stroke="none" /><line stroke="#e1ed5e" stroke-width="0.3" x1="101.45913802915013" x2="101.54496967792366" y1="184.9874750549273" y2="189.98673829345242" /><path d="M 101.47630435890484 185.9873277026323 a86.0,86.0 0 0,1 -42.54439059252881,-10.42667462771756" fill="none" id="id115" stroke="none" /><text fill="#e1ed5e" style="font-size:6.75px; font-family:Arial;" text-anchor="middle"><textPath startOffset="22.145653131862474" xlink:href="#id115">July</textPath></text><path d="M 97.84075906011543 120.88869738790638 l -4.042102416088184 39.10367417593751 a60.312032839831986,60.312032839831986 0 0,0 -1.0289350508564472,-0.11529431860160257 l 4.712773368545431 -39.028524096828946" fill="red" stroke="none" /><path d="M 97.12497278360702 120.80226474461374 l -6.235407589672898 45.116303154056766 a66.54515471593112,66.54515471593112 0 0,0 -1.130237430029762,-0.16610598035090107 l 7.008970125310345 -45.00261610040698" fill="red" stroke="none" /><path d="M 96.76829788921471 120.74984581791261 l -6.988974246334189 44.874228213304335 a66.41521902133294,66.41521902133294 0 0,0 -1.1250184545498203,-0.18512135857643894 l 7.758270203937073 -44.74764085623223" fill="red" stroke="none" /><path d="M 95.00130118170881 120.39639698878247 l -14.664610322681899 59.836614427085415 a82.60739583858252,82.60739583858252 0 0,0 -1.3744088974493625,-0.349369367147446 l 15.689624513356641 -59.57605982810271" fill="red" stroke="none" /><path d="M 94.6519064749342 120.30758222061772 l -15.998732204916001 60.749792080903916 a83.82114827060767,83.82114827060767 0 0,0 -1.3883121125489506,-0.378390639824953 l 17.039225718399646 -60.46620094693482" fill="red" stroke="none" /><path d="M 94.30408787586889 120.21278271476187 l -16.281603287230187 57.77766621407253 a81.02790450071969,81.02790450071969 0 0,0 -1.3355713266963551,-0.3887653483762408 l 17.27103462630815 -57.48965717139377" fill="red" stroke="none" /><path d="M 93.61358852112213 120.00534299687104 l -13.630942819366968 42.69873423816498 a65.8216968407745,65.8216968407745 0 0,0 -1.0734492636861246,-0.3528640943852315 l 14.361914820700838 -42.45844922237773" fill="red" stroke="none" /><path d="M 92.93061703081489 119.77432235084164 l -14.800895997773829 41.40074032161237 a64.9668946084949,64.9668946084949 0 0,0 -1.0469286628027719,-0.38444670645417406 l 15.509413812230719 -41.14056276614947" fill="red" stroke="none" /><path d="M 92.59220618246901 119.65005319985036 l -12.537917544145456 33.25831588005922 a56.54314211661077,56.54314211661077 0 0,0 -0.905303464065473,-0.3501908280339555 l 13.106993270704457 -33.03818516388723" fill="red" stroke="none" /><path d="M 91.59046798132341 119.24265499422711 l -20.585088545013463 47.10271106853419 a72.40438950529281,72.40438950529281 0 0,0 -1.1346340076481893,-0.5075073596590935 l 21.39063595551729 -46.74239995796524" fill="red" stroke="none" /><path d="M 91.26138138417905 119.09545874513695 l -18.5260902240007 40.482850566405666 a65.52052570410356,65.52052570410356 0 0,0 -1.018723386450617,-0.4768139832181564 l 19.218302324322806 -40.15886035161699" fill="red" stroke="none" /><path d="M 90.6110303473126 118.78422872680471 l -20.75633162131817 41.52656735796897 a67.42500510403922,67.42500510403922 0 0,0 -1.0308730340347505,-0.5263711164393171 l 21.466131877066505 -41.16413828985682" fill="red" stroke="none" /><path d="M 89.97174638481275 118.45085714620012 l -22.36561577213957 41.15021392893263 a67.83546599815037,67.83546599815037 0 0,0 -1.01835832881219,-0.5648661985395405 l 23.068718289107863 -40.76021481495994" fill="red" stroke="none" /><line stroke="#e1ed5e" stroke-width="0.3" x1="58.13341422392154" x2="55.67067388415222" y1="173.97424548756322" y2="178.32567169271397" /><path d="M 57.64086615596768 174.84453072859336 a86.0,86.0 0 0,1 -31.369924170532247,-30.572349798747897" fill="none" id="id116" stroke="none" /><text fill="#e1ed5e" style="font-size:6.75px; font-family:Arial;" text-anchor="middle"><textPath startOffset="22.145653131862474" xlink:href="#id116">August</textPath></text><path d="M 89.65649057296885 118.27599006163327 l -11.065312212685889 19.551346422078094 a43.46544638506703,43.46544638506703 0 0,0 -0.6462018928203757,-0.37308483677069243 l 11.399306573366665 -19.35851468803123" fill="red" stroke="none" /><path d="M 88.1277618465304 117.32195027204791 l -12.81326637820349 18.694938574903883 a43.6645212523501,43.6645212523501 0 0,0 -0.6146403249401016,-0.42906668218140775 l 13.132301794317357 -18.47222707691735" fill="red" stroke="none" /><path d="M 87.2517909369889 116.68781488649013 l -22.370638158559885 29.283883456687114 a57.8509332571924,57.8509332571924 0 0,0 -0.7839904904080046,-0.6096357472653505 l 22.87003859360312 -28.89554665780097" fill="red" stroke="none" /><path d="M 86.40962598614128 116.0094264158162 l -17.73932913467075 20.89688511573351 a48.411012489296034,48.411012489296034 0 0,0 -0.6289294101207763,-0.5432542450679152 l 18.09543802455439 -20.589286738200872" fill="red" stroke="none" /><path d="M 86.13680546590413 115.77377054828092 l -25.41262789817219 28.91490561635934 a59.49510908536211,59.49510908536211 0 0,0 -0.76135316877121,-0.6808066982518243 l 25.90524609376677 -28.474403388224136" fill="red" stroke="none" /><path d="M 85.86807049272751 115.53346607816431 l -23.341870380133837 25.656804441610625 a55.68594134513319,55.68594134513319 0 0,0 -0.7015639160132806,-0.6493570869207835 l 23.778864067461086 -25.252329608557464" fill="red" stroke="none" /><path d="M 85.34317274990678 115.03919595460226 l -30.413807800627758 31.20724611367327 a64.57627697420813,64.57627697420813 0 0,0 -0.7872404130153684,-0.7805119029078459 l 30.94504013377309 -30.680554200536765" fill="red" stroke="none" /><path d="M 85.08716467003676 114.78537596483092 l -28.31744558459275 28.07541758947841 a60.876143209442475,60.876143209442475 0 0,0 -0.729392434596631,-0.748420893862512 l 28.79522482034019 -27.58517400354816" fill="red" stroke="none" /><path d="M 84.1078160697243 113.72728997021213 l -23.1635803678547 20.00814902803216 a51.60845443641361,51.60845443641361 0 0,0 -0.5733587137624185,-0.6754151231221487 l 23.50363364512423 -19.60756712246046" fill="red" stroke="none" /><path d="M 82.78059297857968 112.02048342749411 l -37.455866732267836 26.147103948328425 a66.67945925194496,66.67945925194496 0 0,0 -0.6471408637690816,-0.9441978602781119 l 37.899197332852246 -25.50027135298026" fill="red" stroke="none" /><path d="M 82.18462484594161 111.11811171558189 l -37.47709886045894 23.38848148317382 a65.17639647012166,65.17639647012166 0 0,0 -0.5842040846205989,-0.954253467586326 l 37.873070909534945 -22.741690899462938" fill="red" stroke="none" /><line stroke="#e1ed5e" stroke-width="0.3" x1="26.387840678322732" x2="22.057713659400548" y1="142.50000000000003" y2="145.00000000000006" /><path d="M 25.521815274538298 143.00000000000003 a86.0,86.0 0 0,1 -11.493303480769221,-40.785679425670985" fill="none" id="id117" stroke="none" /><text fill="#e1ed5e" style="font-size:6.75px; font-family:Arial;" text-anchor="middle"><textPath startOffset="21.40746469413373" xlink:href="#id117">September</textPath></text><path d="M 81.81346652052679 110.50000000000001 l -54.18647723139274 31.284577215982168 a83.56915443196428,83.56915443196428 0 0,0 -0.7066235019282222,-1.2485360205509421 l 54.715534098342346 -30.349784425332103" fill="red" stroke="none" /><path d="M 80.9802524753101 108.90220220490708 l -35.553316092794454 16.640747123597443 a60.25497102311596,60.25497102311596 0 0,0 -0.43043722491313474,-0.9405830179862892 l 35.83373778256264 -16.027975123396466" fill="red" stroke="none" /><path d="M 80.16572619554312 106.89939002012753 l -43.89819151140586 15.270069749031277 a67.4782341328965,67.4782341328965 0 0,0 -0.3711771318525064,-1.0973192364678395 l 44.15385406483073 -14.514248838089276" fill="red" stroke="none" /><path d="M 79.22317932658666 103.0534771498775 l -43.04585684681296 6.326258590990066 a64.50824449959329,64.50824449959329 0 0,0 -0.1516112187358085,-1.0969832537282038 l 43.148112582103984 -5.586387029061776" fill="red" stroke="none" /><path d="M 79.03789590574601 101.26102812881392 l -61.4281439372292 3.6953645997259295 a82.5391955350235,82.5391955350235 0 0,0 -0.07294267984110428,-1.415068502123898 l 61.48252820652687 -2.6403243042253006" fill="red" stroke="none" /><line stroke="#e1ed5e" stroke-width="0.3" x1="15.003131293944662" x2="10.003315487706104" y1="100.72959589197737" y2="100.7725132973878" /><path d="M 14.003168132696942 100.73817937305945 a86.0,86.0 0 0,1 10.791469493833604,-42.45332614584628" fill="none" id="id118" stroke="none" /><text fill="#e1ed5e" style="font-size:6.75px; font-family:Arial;" text-anchor="middle"><textPath startOffset="22.145653131862435" xlink:href="#id118">October</textPath></text><path d="M 79.13060592940154 97.66154086499901 l -27.43414652711492 -3.07405334051694 a48.60583633240542,48.60583633240542 0 0,0 0.1000306115185989,-0.8283969600853558 l 27.377333829336653 3.544543977525732" fill="red" stroke="none" /><path d="M 79.22317932658666 96.9465228501225 l -44.205894403419244 -6.496744163723979 a65.68074288477234,65.68074288477234 0 0,0 0.17351760049987008,-1.1141074683370351 l 44.0878553107811 7.254639813992464" fill="red" stroke="none" /><path d="M 79.56144815229197 95.17655741523228 l -45.296123433962975 -10.689761795465584 a67.54041045573841,67.54041045573841 0 0,0 0.2759909372053042,-1.126137205935895 l 45.105944970241374 11.465754826009595" fill="red" stroke="none" /><path d="M 79.64726062577567 94.8264132398404 l -25.371647506812234 -6.449373581175856 a47.178520141511065,47.178520141511065 0 0,0 0.206261163288421,-0.7832072331510481 l 25.257196862719088 6.883961318699689" fill="red" stroke="none" /><path d="M 79.73907114497095 94.47779374421319 l -25.98738274059868 -7.082976726708144 a47.93534148692857,47.93534148692857 0 0,0 0.22319952254817724,-0.7920563648079699 l 25.861964725975923 7.528041015419127" fill="red" stroke="none" /><path d="M 79.94057633289273 93.78553927170692 l -41.73310530118585 -12.929022701146192 a64.6899497148557,64.6899497148557 0 0,0 0.3377286201591974,-1.057930092429913 l 41.505011965249395 13.643521827267495" fill="red" stroke="none" /><path d="M 80.68587082218212 91.75594674310238 l -40.96933184869918 -17.487371579149137 a65.54541858458701,65.54541858458701 0 0,0 0.45059703012519503,-1.0310541862336622 l 40.66310093655701 18.188087835158665" fill="red" stroke="none" /><line stroke="#e1ed5e" stroke-width="0.3" x1="26.387840678322718" x2="22.05771365940052" y1="57.49999999999999" y2="54.99999999999999" /><path d="M 25.521815274538284 56.99999999999999 a86.0,86.0 0 0,1 29.574782752854787,-30.34633250058573" fill="none" id="id119" stroke="none" /><text fill="#e1ed5e" style="font-size:6.75px; font-family:Arial;" text-anchor="middle"><textPath startOffset="21.40746469413373" xlink:href="#id119">November</textPath></text><path d="M 85.34317274990677 84.96080404539775 l -24.65006182837715 -25.293134987837618 a56.31810053861606,56.31810053861606 0 0,0 0.6981500530479049,-0.668811958026775 l 24.212239289463945 25.712559076169963" fill="red" stroke="none" /><line stroke="#e1ed5e" stroke-width="0.3" x1="56.869717070023135" x2="54.33264160355391" y1="26.7553504044142" y2="22.446841604673864" /><path d="M 56.362301976729285 25.89364864446614 a86.0,86.0 0 0,1 42.16139366436587,-11.88097634709845" fill="none" id="id120" stroke="none" /><text fill="#e1ed5e" style="font-size:6.75px; font-family:Arial;" text-anchor="middle"><textPath startOffset="22.145653131862474" xlink:href="#id120">December</textPath></text></svg>