<?xml version="1.0" encoding="utf-8" ?>
<svg baseProfile="full" height="200mm" version="1.1" viewBox="0,0,200,200" width="200mm" xmlns="http://www.w3.org/2000/svg" xmlns:ev="http://www.w3.org/2001/xml-events" xmlns:xlink="http://www.w3.org/1999/xlink"><defs /><rect fill="#1a1a1a" height="200" width="200" x="0" y="0" /><rect fill="#1a1a1a" height="200" width="180" x="10" y="0" /><text alignment-baseline="middle" fill="#e1ed5e" style="dominant-baseline: central; font-size:9.0px; font-family:Arial;" text-anchor="middle" x="100.0" y="100.0">2025</text><line stroke="#e1ed5e" stroke-width="0.3" x1="100.0" x2="100.0" y1="15.0" y2="10.0" /><path d="M 100.0 14.0 a86.0,86.0 0 0,1 42.46469731375804,11.215312516191453" fill="none" id="id121" stroke="none" /><text fill="#e1ed5e" style="font-size:6.75px; font-family:Arial;" text-anchor="middle"><textPath startOffset="22.20632615414155" xlink:href="#id121">January</textPath></text><line stroke="#e1ed5e" stroke-width="0.3" x1="143.23703022742887" x2="145.7803849466894" y1="26.81831364943548" y2="22.513508569990506" /><path d="M 143.74570117128098 25.957352633546492 a86.0,86.0 0 0,1 28.547481713284135,27.462654790039103" fill="none" id="id122" stroke="none" /><text fill="#e1ed5e" style="font-size:6.75px; font-family:Arial;" text-anchor="middle"><textPath startOffset="19.985693538727396" xlink:href="#id122">February</textPath></text><path d="M 115.4437574822437 85.77008943001954 l 22.552029356309866 -20.77948719933154 a51.66563412608723,51.66563412608723 0 0,0 0.5969997467762017,0.6592220313350639 l -22.906372743702104 20.388212380726927" fill="red" stroke="none" /><line stroke="#e1ed5e" stroke-width="0.3" x1="172.23445277983987" x2="176.4835382374775" y1="55.19839476539836" y2="52.563006222186495" /><path d="M 173.08426987136738 54.67131705675599 a86.0,86.0 0 0,1 12.851231095245387,41.99856678651699" fill="none" id="id123" stroke="none" /><text fill="#e1ed5e" style="font-size:6.75px; font-family:Arial;" text-anchor="middle"><textPath startOffset="22.20632615414155" xlink:href="#id123">March</textPath></text><path d="M 119.34039704204932 91.81776055985345 l 27.846333909846805 -11.780801143082222 a51.235832844350945,51.235832844350945 0 0,0 0.33663970413544314,0.8151997455857867 l -28.044995300868447 11.299726827043132" fill="red" stroke="none" /><path d="M 119.47837535516314 92.15188598940014 l 28.117326679918925 -11.328870166720154 a51.31381465404317,51.31381465404317 0 0,0 0.3230484417828299,0.8221230477593384 l -28.308168671583456 10.843198114065032" fill="red" stroke="none" /><path d="M 119.7369772167798 92.82701384747503 l 28.43572984101884 -10.334363471482378 a51.255409432895114,51.255409432895114 0 0,0 0.2942229380460635,0.8318078663431593 l -28.609405859874713 9.843357978712604" fill="red" stroke="none" /><path d="M 119.85752413597 93.16781622104841 l 30.204176357404858 -10.392055039321454 a52.941932899708824,52.941932899708824 0 0,0 0.28906977615399876,0.8642818372048683 l -30.378583427330625 9.87060009919427" fill="red" stroke="none" /><path d="M 120.28053869075195 94.5502522615342 l 23.72766606815946 -6.37605324324988 a45.56941578472804,45.56941578472804 0 0,0 0.19704143370383975,0.7592810223203322 l -23.833903833733604 5.966675795380698" fill="red" stroke="none" /><path d="M 120.37134235888165 94.90015583598534 l 29.266846942592643 -7.326780727054893 a51.170018988782346,51.170018988782346 0 0,0 0.20654948667998932,0.8562809699488922 l -29.388629229533453 6.821914525446594" fill="red" stroke="none" /><path d="M 120.73433829027371 96.67025291283417 l 30.03299183920527 -4.823026695883468 a51.41779389309775,51.41779389309775 0 0,0 0.13281487100253855,0.8750840560111484 l -30.11156260364711 4.305343527480237" fill="red" stroke="none" /><path d="M 120.78858239683441 97.02765380044208 l 31.769824348443915 -4.542441368060729 a53.09291997798345,53.09291997798345 0 0,0 0.12156761972588494,0.9058199711590483 l -31.843307967227634 3.994903054837016" fill="red" stroke="none" /><path d="M 120.87857604477298 97.74499172005257 l 31.698034705142515 -3.4235730715003627 a52.882381604019514,52.882381604019514 0 0,0 0.08995765103165769,0.9058612694091177 l -31.752269481856402 2.87743627138681" fill="red" stroke="none" /><path d="M 120.94382443527127 98.46500227214037 l 30.843888498312445 -2.260585162446825 a51.926618033225125,51.926618033225125 0 0,0 0.05766181160353666,0.8920027037848022 l -30.878230900920396 1.7293233944089876" fill="red" stroke="none" /><path d="M 120.98425023603335 99.18683210126433 l 30.261666912409325 -1.172680263464786 a51.284379856915166,51.284379856915166 0 0,0 0.026590476073088287,0.8824084482428335 l -30.27736908293806 0.6516016677969533" fill="red" stroke="none" /><line stroke="#e1ed5e" stroke-width="0.3" x1="184.98032266829074" x2="189.97916517819016" y1="98.17113171792111" y2="98.06355123074" /><path d="M 185.9800911702706 98.14961562048488 a86.0,86.0 0 0,1 -9.607161424134198,41.387399972396054" fill="none" id="id124" stroke="none" /><text fill="#e1ed5e" style="font-size:6.75px; font-family:Arial;" text-anchor="middle"><textPath startOffset="21.466115282336823" xlink:href="#id124">April</textPath></text><path d="M 120.99824983174949 100.27111621757518 l 30.82010539742763 0.3979298497527664 a51.82267420056008,51.82267420056008 0 0,0 -0.019193976734630365,0.8918686775749182 l -30.808689358007992 -0.9283883431177994" fill="red" stroke="none" /><path d="M 120.64145759157962 103.86396538481128 l 54.45843694686748 10.194314734801656 a76.40438076188683,76.40438076188683 0 0,0 -0.25311704240749267,1.2906383460549211 l -54.27488997148432 -11.130216807924523" fill="red" stroke="none" /><path d="M 120.32669344350535 105.2749913415812 l 53.978515072304134 14.007993992195125 a76.76651311581476,76.76651311581476 0 0,0 -0.34293401275851293,1.2761850360585298 l -53.729392983203844 -14.935069961429203" fill="red" stroke="none" /><path d="M 119.67450827220406 107.3425965602758 l 32.65053762372112 12.185296929925908 a55.85023770921068,55.85023770921068 0 0,0 -0.3438931058030182,0.8977963827331613 l -32.435950238324594 -12.745516879492213" fill="red" stroke="none" /><line stroke="#e1ed5e" stroke-width="0.3" x1="174.80103733775053" x2="179.2010983576182" y1="140.37084112569926" y2="142.7455964860345" /><path d="M 175.68104954172406 140.8457921977663 a86.0,86.0 0 0,1 -30.038265399797805,32.042727171017184" fill="none" id="id125" stroke="none" /><text fill="#e1ed5e" style="font-size:6.75px; font-family:Arial;" text-anchor="middle"><textPath startOffset="22.206326154141568" xlink:href="#id125">May</textPath></text><path d="M 112.34349029814194 116.9893568818739 l 11.232095000312086 15.45965248744421 a40.10918138300476,40.10918138300476 0 0,0 -0.5620493325414563,0.40100727543299347 l -10.964318339921745 -15.650704024721422" fill="red" stroke="none" /><path d="M 111.7513745106137 117.40417183066458 l 18.99263801692678 28.128721050091315 a54.94031889590701,54.94031889590701 0 0,0 -0.7883289591729343,0.5224614478755554 l -18.505634359013882 -28.451480519058187" fill="red" stroke="none" /><line stroke="#e1ed5e" stroke-width="0.3" x1="143.8653032363475" x2="146.44561519142675" y1="172.8068346515853" y2="177.08958963109032" /><path d="M 144.38136562736335 173.6633856474863 a86.0,86.0 0 0,1 -40.68145358897372,12.25698825130547" fill="none" id="id126" stroke="none" /><text fill="#e1ed5e" style="font-size:6.75px; font-family:Arial;" text-anchor="middle"><textPath startOffset="21.466115282336833" xlink:href="#id126">June</textPath></text><path d="M 110.8373102113329 117.98757091392108 l 4.175151301392202 6.929840398183568 a29.090400257948552,29.090400257948552 0 0,0 -0.43113653356751575,0.254723063427517 l -4.055246896796304 -7.000682033904835" fill="red" stroke="none" /><path d="M 107.2578585660854 119.70592522655815 l 11.58444548639432 31.453108994537995 a54.51861337599646,54.51861337599646 0 0,0 -0.8834103673067473,0.3167595274808118 l -11.041315558457836 -31.647856063058768" fill="red" stroke="none" /><path d="M 105.53697534728816 120.25689768951611 l 8.10383823165561 29.647706853424364 a51.73530080788911,51.73530080788911 0 0,0 -0.8610467655418715,0.22741027671187838 l -7.59230102330224 -29.782808479439826" fill="red" stroke="none" /><line stroke="#e1ed5e" stroke-width="0.3" x1="102.19456741930631" x2="102.32365962044197" y1="184.97166512339345" y2="189.96999836594603" /><path d="M 102.22038585953345 185.97133177190398 a86.0,86.0 0 0,1 -42.740103519485714,-10.115201625700543" fill="none" id="id127" stroke="none" /><text fill="#e1ed5e" style="font-size:6.75px; font-family:Arial;" text-anchor="middle"><textPath startOffset="22.20632615414155" xlink:href="#id127">July</textPath></text><path d="M 98.73552117531835 120.96189622390904 l -1.853985876438034 30.734448678704815 a51.7903166468611,51.7903166468611 0 0,0 -0.8894055625670956,-0.061338614906344326 l 2.38275419978406 -30.697981719282186" fill="red" stroke="none" /><path d="M 90.42595943632237 118.69057910512821 l -14.330990375784763 27.977164656021316 a52.434042491238124,52.434042491238124 0 0,0 -0.799766706059803,-0.4184001413016277 l 14.810447984371061 -27.72633509577497" fill="red" stroke="none" /><line stroke="#e1ed5e" stroke-width="0.3" x1="58.666819895761336" x2="56.23545636021788" y1="174.27360380694188" y2="178.64263932499728" /><path d="M 58.180547188652646 175.14741091055294 a86.0,86.0 0 0,1 -31.652253787137756,-30.449443065178592" fill="none" id="id128" stroke="none" /><text fill="#e1ed5e" style="font-size:6.75px; font-family:Arial;" text-anchor="middle"><textPath startOffset="22.20632615414155" xlink:href="#id128">August</textPath></text><path d="M 89.1626897886671 117.98757091392108 l -32.511930633998716 53.962712741763234 a84.0,84.0 0 0,0 -1.2320832002707651,-0.7568461326864875 l 33.435993034201786 -53.395078142248366" fill="red" stroke="none" /><path d="M 87.95078237400918 117.19931262002967 l -17.94333151829245 25.61269767111257 a52.272566699379865,52.272566699379865 0 0,0 -0.7324946610868477,-0.5226154917459801 l 18.381553507228183 -25.300037917522374" fill="red" stroke="none" /><path d="M 85.70375840098266 115.38237550388516 l -33.94215173856825 36.52085199010578 a70.8582219370808,70.8582219370808 0 0,0 -0.8862817019835065,-0.8380346681400251 l 34.565769274942575 -35.931182685219824" fill="red" stroke="none" /><path d="M 84.9287848128048 114.62390073753433 l -24.158207452000898 23.44119059987831 a54.66167559753577,54.66167559753577 0 0,0 -0.6494157120111372,-0.6809097777138748 l 24.558129715390994 -23.021873705581935" fill="red" stroke="none" /><path d="M 84.43433777217949 114.09645910891817 l -27.492373114551746 24.89743820367248 a58.09060539510534,58.09060539510534 0 0,0 -0.6648363297754316,-0.7469506643842455 l 27.91686829397552 -24.420513369547372" fill="red" stroke="none" /><path d="M 83.95833913139862 113.55231037782056 l -4.720432082290445 3.9879137964970255 a27.17947695940427,27.17947695940427 0 0,0 -0.29884999765370995,-0.3599840739901999 l 4.788378079837692 -3.906068465393065" fill="red" stroke="none" /><path d="M 83.06392112726016 112.41649034213515 l -3.1093856067342576 2.2796100942900357 a24.855502695285686,24.855502695285686 0 0,0 -0.2499992590431853,-0.34722710525788 l 3.1481646581530507 -2.2257493835810176" fill="red" stroke="none" /><path d="M 82.6465618267979 111.8261652097733 l -13.665583247180884 9.312935197973534 a37.53719829618322,37.53719829618322 0 0,0 -0.35927906138640237,-0.5370734491494864 l 13.823865413978016 -9.076324834618227" fill="red" stroke="none" /><path d="M 82.44556493220864 111.52570212397912 l -14.433861667990458 9.47682961266091 a38.266923934450254,38.266923934450254 0 0,0 -0.3567846476136137,-0.5537376962442087 l 14.594851178981116 -9.226970316495255" fill="red" stroke="none" /><line stroke="#e1ed5e" stroke-width="0.3" x1="26.63291911575756" x2="22.317208475507996" y1="142.92168965132927" y2="145.44649492493687" /><path d="M 25.769776987707644 143.4266507060508 a86.0,86.0 0 0,1 -11.730757126820373,-40.83630448921669" fill="none" id="id129" stroke="none" /><text fill="#e1ed5e" style="font-size:6.75px; font-family:Arial;" text-anchor="middle"><textPath startOffset="21.46611528233685" xlink:href="#id129">September</textPath></text><path d="M 81.87401531095188 110.60418214915194 l -15.715770545797472 9.194142902625668 a39.207627730213986,39.207627730213986 0 0,0 -0.335781599184747,-0.585463521293839 l 15.871704141134597 -8.922259535473522" fill="red" stroke="none" /><path d="M 81.35079622478065 109.6543875284942 l -14.485451943922541 7.498881361242614 a37.31139294142843,37.31139294142843 0 0,0 -0.2903560698388349,-0.5729000718795126 l 14.612386683547644 -7.248427077660416" fill="red" stroke="none" /><path d="M 80.73074385275274 108.34839909993369 l -13.248858366243974 5.740063675249915 a35.438856568465404,35.438856568465404 0 0,0 -0.23769181787309204,-0.5618332444240622 l 13.345701165309373 -5.5111559051596934" fill="red" stroke="none" /><path d="M 80.45479744820244 107.68017299344265 l -15.625694766770597 6.140025340412378 a37.788753620361106,37.788753620361106 0 0,0 -0.23268104810210402,-0.6074567933800998 l 15.72907009446621 -5.87014498019912" fill="red" stroke="none" /><path d="M 80.32549172779594 107.34259656027581 l -16.082844669158384 6.002174911484248 a38.16636234967464,38.16636234967464 0 0,0 -0.2244104664699265,-0.617481223264988 l 16.183779396633533 -5.7244458912131435" fill="red" stroke="none" /><line stroke="#e1ed5e" stroke-width="0.3" x1="15.007084014347285" x2="10.007500721073583" y1="101.09737516637583" y2="101.16192664675087" /><path d="M 14.007167355692545 101.11028546245083 a86.0,86.0 0 0,1 10.666146001902534,-42.60595125391555" fill="none" id="id130" stroke="none" /><text fill="#e1ed5e" style="font-size:6.75px; font-family:Arial;" text-anchor="middle"><textPath startOffset="22.20632615414155" xlink:href="#id130">October</textPath></text><path d="M 80.65960295795068 91.81776055985345 l -4.486036857674535 -1.897883876272597 a25.870984489426128,25.870984489426128 0 0,0 0.1770428960307831,-0.40863941359664135 l 4.452703251801071 1.9748224344558376" fill="red" stroke="none" /><line stroke="#e1ed5e" stroke-width="0.3" x1="26.266209847984243" x2="21.928928074336255" y1="57.711370442889674" y2="55.22380399835377" /><path d="M 25.398753493254645 57.213857153982495 a86.0,86.0 0 0,1 29.58750427330803,-30.492523968695096" fill="none" id="id131" stroke="none" /><text fill="#e1ed5e" style="font-size:6.75px; font-family:Arial;" text-anchor="middle"><textPath startOffset="21.46611528233685" xlink:href="#id131">November</textPath></text><line stroke="#e1ed5e" stroke-width="0.3" x1="56.762969772571076" x2="54.21961505331055" y1="26.818313649435495" y2="22.513508569990535" /><path d="M 56.25429882871897 25.957352633546506 a86.0,86.0 0 0,1 42.265352541879196,-11.944610805530505" fill="none" id="id132" stroke="none" /><text fill="#e1ed5e" style="font-size:6.75px; font-family:Arial;" text-anchor="middle"><textPath startOffset="22.20632615414155" xlink:href="#id132">December</textPath></text><path d="M 90.91171255644093 81.06846463323043 l -9.679941498160487 -20.16399194664123 a43.367115116438725,43.367115116438725 0 0,0 0.6757459513893747,-0.3172717849412787 l 9.331417335471505 20.327628714222513" fill="red" stroke="none" /><path d="M 92.23578459929587 80.48803036053334 l -1.60471410206133 -4.032749121901624 a25.34029639881343,25.34029639881343 0 0,0 0.40667173763324765,-0.15778231617718286 l 1.535059199428406 4.059774141969358" fill="red" stroke="none" /><path d="M 93.59665428221793 80.00007090966166 l -6.116351590820341 -19.103544225057885 a41.05879255442044,41.05879255442044 0 0,0 0.6749569413629409,-0.20971240720350065 l 5.786609276746671 19.20599676714391" fill="red" stroke="none" /></svg>