<?xml version="1.0" encoding="utf-8" ?>
<svg baseProfile="full" height="200mm" version="1.1" viewBox="0,0,200,200" width="200mm" xmlns="http://www.w3.org/2000/svg" xmlns:ev="http://www.w3.org/2001/xml-events" xmlns:xlink="http://www.w3.org/1999/xlink"><defs /><rect fill="#1a1a1a" height="200" width="200" x="0" y="0" /><rect fill="#1a1a1a" height="200" width="180" x="10" y="0" /><text alignment-baseline="middle" fill="#e1ed5e" style="dominant-baseline: central; font-size:9.0px; font-family:Arial;" text-anchor="middle" x="100.0" y="100.0">2025</text><line stroke="#e1ed5e" stroke-width="0.3" x1="100.0" x2="100.0" y1="15.0" y2="10.0" /><path d="M 100.0 14.0 a86.0,86.0 0 0,1 42.46469731375804,11.215312516191453" fill="none" id="id121" stroke="none" /><text fill="#e1ed5e" style="font-size:6.75px; font-family:Arial;" text-anchor="middle"><textPath startOffset="22.20632615414155" xlink:href="#id121">January</textPath></text><line stroke="#e1ed5e" stroke-width="0.3" x1="143.23703022742887" x2="145.7803849466894" y1="26.81831364943548" y2="22.513508569990506" /><path d="M 143.74570117128098 25.957352633546492 a86.0,86.0 0 0,1 28.547481713284135,27.462654790039103" fill="none" id="id122" stroke="none" /><text fill="#e1ed5e" style="font-size:6.75px; font-family:Arial;" text-anchor="middle"><textPath startOffset="19.985693538727396" xlink:href="#id122">February</textPath></text><path d="M 115.4437574822437 85.77008943001954 l 22.654344923042512 -20.873760977341615 a51.80476004177555,51.80476004177555 0 0,0 0.5986073557379583,0.6609971933030285 l -23.01029591939651 20.480710996769034" fill="red" stroke="none" /><line stroke="#e1ed5e" stroke-width="0.3" x1="172.23445277983987" x2="176.4835382374775" y1="55.19839476539836" y2="52.563006222186495" /><path d="M 173.08426987136738 54.67131705675599 a86.0,86.0 0 0,1 12.851231095245387,41.99856678651699" fill="none" id="id123" stroke="none" /><text fill="#e1ed5e" style="font-size:6.75px; font-family:Arial;" text-anchor="middle"><textPath startOffset="22.20632615414155" xlink:href="#id123">March</textPath></text><path d="M 119.34039704204932 91.81776055985345 l 28.239139919096786 -11.946983502949184 a51.66234560809178,51.66234560809178 0 0,0 0.33944206183365583,0.8219858770330274 l -28.44060366781664 11.459123055462852" fill="red" stroke="none" /><path d="M 119.47837535516314 92.15188598940014 l 28.44060366781664 -11.459123055462852 a51.66234560809178,51.66234560809178 0 0,0 0.3252426341728828,0.8277070280600183 l -28.633639851871223 10.96786702250705" fill="red" stroke="none" /><path d="M 119.7369772167798 92.82701384747503 l 28.573818898600564 -10.384549013420726 a51.40233518435977,51.40233518435977 0 0,0 0.29506634026933815,0.8341922780021216 l -28.74833831967971 9.89115910899199" fill="red" stroke="none" /><path d="M 119.85752413597 93.16781622104841 l 30.574618834946573 -10.519509553225863 a53.33368828548144,53.33368828548144 0 0,0 0.29120881104505464,0.8706772792676254 l -30.7511649397634 9.991659171035923" fill="red" stroke="none" /><path d="M 120.28053869075195 94.5502522615342 l 23.902068488272036 -6.422918329482766 a45.75000520980254,45.75000520980254 0 0,0 0.19782229952394442,0.7622900168604106 l -24.009087119666283 6.010531887073505" fill="red" stroke="none" /><path d="M 120.37134235888165 94.90015583598534 l 29.74443523375185 -7.446342109734621 a51.66234560809178,51.66234560809178 0 0,0 0.20853677948360447,0.8645195816094892 l -29.868204813496273 6.933237296465726" fill="red" stroke="none" /><path d="M 120.73433829027371 96.67025291283417 l 30.274449838641118 -4.861802665438838 a51.66234560809178,51.66234560809178 0 0,0 0.13344656096862134,0.8792461036304295 l -30.35365229304904 4.339957449416326" fill="red" stroke="none" /><path d="M 120.78858239683441 97.02765380044208 l 32.32000510024557 -4.621106071380594 a53.64869600769455,53.64869600769455 0 0,0 0.12284018806570687,0.9153020834145535 l -32.39476128736911 4.064085645901376" fill="red" stroke="none" /><path d="M 120.87857604477298 97.74499172005257 l 31.640700393042454 -3.41738063058708 a52.82471385160578,52.82471385160578 0 0,0 0.08985955303776892,0.9048734359980463 l -31.69483707176245 2.872231663884599" fill="red" stroke="none" /><path d="M 120.94382443527127 98.46500227214037 l 30.892725807895793 -2.264164506777031 a51.97558633433078,51.97558633433078 0 0,0 0.057716188357884356,0.8928438881068399 l -30.92712258725809 1.7320615544171558" fill="red" stroke="none" /><path d="M 120.98425023603335 99.18683210126433 l 30.639349193520776 -1.1873159594494687 a51.66234560809178,51.66234560809178 0 0,0 0.02678644781518889,0.8889117962976453 l -30.655247335791607 0.6597340157268243" fill="red" stroke="none" /><line stroke="#e1ed5e" stroke-width="0.3" x1="184.98032266829074" x2="189.97916517819016" y1="98.17113171792111" y2="98.06355123074" /><path d="M 185.9800911702706 98.14961562048488 a86.0,86.0 0 0,1 -9.607161424134198,41.387399972396054" fill="none" id="id124" stroke="none" /><text fill="#e1ed5e" style="font-size:6.75px; font-family:Arial;" text-anchor="middle"><textPath startOffset="21.466115282336823" xlink:href="#id124">April</textPath></text><path d="M 120.99824983174949 100.27111621757518 l 30.996249067487256 0.4002041062245687 a51.998832551893685,51.998832551893685 0 0,0 -0.019259221906734424,0.8949003643466128 l -30.984767782895513 -0.9336942863612964" fill="red" stroke="none" /><path d="M 120.64145759157962 103.86396538481128 l 54.424635805804705 10.187987350291419 a76.36999249452882,76.36999249452882 0 0,0 -0.25300311888059035,1.2900574524456272 l -54.24120275394845 -11.12330852980499" fill="red" stroke="none" /><path d="M 120.32669344350535 105.2749913415812 l 53.80441607238525 13.962813465431019 a76.58664721640234,76.58664721640234 0 0,0 -0.3421305096144941,1.2731949019491293 l -53.55609748642898 -14.886899300555697" fill="red" stroke="none" /><path d="M 119.67450827220406 107.3425965602758 l 32.593451737047594 12.163992273701208 a55.789305888015555,55.789305888015555 0 0,0 -0.34351792327752695,0.8968168995490942 l -32.37923953417656 -12.723232740083446" fill="red" stroke="none" /><line stroke="#e1ed5e" stroke-width="0.3" x1="174.80103733775053" x2="179.2010983576182" y1="140.37084112569926" y2="142.7455964860345" /><path d="M 175.68104954172406 140.8457921977663 a86.0,86.0 0 0,1 -30.038265399797805,32.042727171017184" fill="none" id="id125" stroke="none" /><text fill="#e1ed5e" style="font-size:6.75px; font-family:Arial;" text-anchor="middle"><textPath startOffset="22.206326154141568" xlink:href="#id125">May</textPath></text><path d="M 112.34349029814194 116.9893568818739 l 11.233467613255998 15.461541727084017 a40.11151661162535,40.11151661162535 0 0,0 -0.5620820560636594,0.4010306227972219 l -10.965658229343454 -15.652616611725458" fill="red" stroke="none" /><path d="M 111.7513745106137 117.40417183066458 l 18.97373260059872 28.100721507228762 a54.90653444434939,54.90653444434939 0 0,0 -0.7878441920280055,0.5221401706454409 l -18.487213709830748 -28.42315969896552" fill="red" stroke="none" /><line stroke="#e1ed5e" stroke-width="0.3" x1="143.8653032363475" x2="146.44561519142675" y1="172.8068346515853" y2="177.08958963109032" /><path d="M 144.38136562736335 173.6633856474863 a86.0,86.0 0 0,1 -40.68145358897372,12.25698825130547" fill="none" id="id126" stroke="none" /><text fill="#e1ed5e" style="font-size:6.75px; font-family:Arial;" text-anchor="middle"><textPath startOffset="21.466115282336833" xlink:href="#id126">June</textPath></text><path d="M 110.8373102113329 117.98757091392108 l 4.316181672842641 7.16392005060771 a29.36368188804918,29.36368188804918 0 0,0 -0.43518672516489915,0.2571159880136501 l -4.192227076649361 -7.23715461091511" fill="red" stroke="none" /><path d="M 107.2578585660854 119.70592522655815 l 11.59649255256703 31.4858181721883 a54.553470543206785,54.553470543206785 0 0,0 -0.8839751869340583,0.3169620517038458 l -11.052797805003237 -31.680767764932103" fill="red" stroke="none" /><path d="M 105.53697534728816 120.25689768951611 l 8.084602462953976 29.577333233509474 a51.66234560809178,51.66234560809178 0 0,0 -0.8598325493715971,0.22708959118546987 l -7.574279470770882 -29.712114173998526" fill="red" stroke="none" /><line stroke="#e1ed5e" stroke-width="0.3" x1="102.19456741930631" x2="102.32365962044197" y1="184.97166512339345" y2="189.96999836594603" /><path d="M 102.22038585953345 185.97133177190398 a86.0,86.0 0 0,1 -42.740103519485714,-10.115201625700543" fill="none" id="id127" stroke="none" /><text fill="#e1ed5e" style="font-size:6.75px; font-family:Arial;" text-anchor="middle"><textPath startOffset="22.20632615414155" xlink:href="#id127">July</textPath></text><path d="M 98.73552117531835 120.96189622390904 l -1.8462803207858285 30.606709838973945 a51.66234560809178,51.66234560809178 0 0,0 -0.8872078900850947,-0.0611870505450032 l 2.372850971649853 -30.570394443912654" fill="red" stroke="none" /><path d="M 90.42595943632237 118.69057910512821 l -14.3441011388423 28.0027596754309 a52.46280004896697,52.46280004896697 0 0,0 -0.800205339743692,-0.41862961371393026 l 14.823997381112488 -27.751700642772253" fill="red" stroke="none" /><line stroke="#e1ed5e" stroke-width="0.3" x1="58.666819895761336" x2="56.23545636021788" y1="174.27360380694188" y2="178.64263932499728" /><path d="M 58.180547188652646 175.14741091055294 a86.0,86.0 0 0,1 -31.652253787137756,-30.449443065178592" fill="none" id="id128" stroke="none" /><text fill="#e1ed5e" style="font-size:6.75px; font-family:Arial;" text-anchor="middle"><textPath startOffset="22.20632615414155" xlink:href="#id128">August</textPath></text><path d="M 89.1626897886671 117.98757091392108 l -32.511930633998716 53.962712741763234 a84.0,84.0 0 0,0 -1.2320832002707651,-0.7568461326864875 l 33.435993034201786 -53.395078142248366" fill="red" stroke="none" /><path d="M 87.95078237400918 117.19931262002967 l -17.98729951583965 25.675458537300248 a52.34919640075562,52.34919640075562 0 0,0 -0.7335684718958947,-0.5233816272467898 l 18.426595315584432 -25.36203264820924" fill="red" stroke="none" /><path d="M 85.70375840098266 115.38237550388516 l -34.068178816535884 36.65645377212161 a71.04334532206208,71.04334532206208 0 0,0 -0.8885971914811663,-0.8402241079856299 l 34.694111842407864 -36.06459502739005" fill="red" stroke="none" /><path d="M 84.9287848128048 114.62390073753433 l -26.407363392073698 25.62359147481277 a57.79561497500934,57.79561497500934 0 0,0 -0.686648918823288,-0.7199486462000156 l 26.844518862275944 -25.165235712030256" fill="red" stroke="none" /><path d="M 84.43433777217949 114.09645910891817 l -31.44244561830011 28.474673448237297 a63.419740857807106,63.419740857807106 0 0,0 -0.7258273082271257,-0.8154746752356478 l 31.927931776175573 -27.929224603260785" fill="red" stroke="none" /><path d="M 83.95833913139862 113.55231037782056 l -9.339910778238915 7.89054018811714 a33.2267967107397,33.2267967107397 0 0,0 -0.3653428700587659,-0.4400790222505598 l 9.474349648191216 -7.72859990875282" fill="red" stroke="none" /><path d="M 83.06392112726016 112.41649034213515 l -6.152272426711155 4.51046737219673 a28.628549791940905,28.628549791940905 0 0,0 -0.28794896338281034,-0.3999359254106796 l 6.229001182469573 -4.403897841334912" fill="red" stroke="none" /><path d="M 82.6465618267979 111.8261652097733 l -13.720597666666494 9.350426881596281 a37.60377316150195,37.60377316150195 0 0,0 -0.35991626810958155,-0.5380259867432957 l 13.879517040186805 -9.112863980647164" fill="red" stroke="none" /><path d="M 82.44556493220864 111.52570212397912 l -14.470392778047144 9.50081481589563 a38.31062533003649,38.31062533003649 0 0,0 -0.3571921009812052,-0.554370072919063 l 14.631789742405394 -9.25032314305512" fill="red" stroke="none" /><line stroke="#e1ed5e" stroke-width="0.3" x1="26.63291911575756" x2="22.317208475507996" y1="142.92168965132927" y2="145.44649492493687" /><path d="M 25.769776987707644 143.4266507060508 a86.0,86.0 0 0,1 -11.730757126820373,-40.83630448921669" fill="none" id="id129" stroke="none" /><text fill="#e1ed5e" style="font-size:6.75px; font-family:Arial;" text-anchor="middle"><textPath startOffset="21.46611528233685" xlink:href="#id129">September</textPath></text><path d="M 81.87401531095188 110.60418214915194 l -15.828893174203285 9.260322642782398 a39.33868682781752,39.33868682781752 0 0,0 -0.33690401428427397,-0.5874205466285146 l 15.985949184639937 -8.986482250295577" fill="red" stroke="none" /><path d="M 81.35079622478065 109.6543875284942 l -14.727566703034805 7.6242202088959266 a37.58402709796618,37.58402709796618 0 0,0 -0.2924777001494586,-0.577086249761493 l 14.85662307297053 -7.369579747431749" fill="red" stroke="none" /><path d="M 80.73074385275274 108.34839909993369 l -13.81740363372895 5.986385731642382 a36.058467960101304,36.058467960101304 0 0,0 -0.24184761104232946,-0.5716563118746829 l 13.918402225963586 -5.74765489410154" fill="red" stroke="none" /><path d="M 80.45479744820244 107.68017299344265 l -15.692039486202006 6.166095109762902 a37.860036540267785,37.860036540267785 0 0,0 -0.23311996664073312,-0.6086026711823767 l 15.795853732436248 -5.895068871747368" fill="red" stroke="none" /><path d="M 80.32549172779594 107.34259656027581 l -16.152914685209975 6.028325291037356 a38.2411530543126,38.2411530543126 0 0,0 -0.22485022063778895,-0.6186912378680456 l 16.25428916685299 -5.749386256163193" fill="red" stroke="none" /><line stroke="#e1ed5e" stroke-width="0.3" x1="15.007084014347285" x2="10.007500721073583" y1="101.09737516637583" y2="101.16192664675087" /><path d="M 14.007167355692545 101.11028546245083 a86.0,86.0 0 0,1 10.666146001902534,-42.60595125391555" fill="none" id="id130" stroke="none" /><text fill="#e1ed5e" style="font-size:6.75px; font-family:Arial;" text-anchor="middle"><textPath startOffset="22.20632615414155" xlink:href="#id130">October</textPath></text><path d="M 80.65960295795068 91.81776055985345 l -8.876133215805348 -3.7551787130561256 a30.63779580774115,30.63779580774115 0 0,0 0.2096636136912082,-0.4839325274956591 l 8.810178892271459 3.907410385138384" fill="red" stroke="none" /><line stroke="#e1ed5e" stroke-width="0.3" x1="26.266209847984243" x2="21.928928074336255" y1="57.711370442889674" y2="55.22380399835377" /><path d="M 25.398753493254645 57.213857153982495 a86.0,86.0 0 0,1 29.58750427330803,-30.492523968695096" fill="none" id="id131" stroke="none" /><text fill="#e1ed5e" style="font-size:6.75px; font-family:Arial;" text-anchor="middle"><textPath startOffset="21.46611528233685" xlink:href="#id131">November</textPath></text><line stroke="#e1ed5e" stroke-width="0.3" x1="56.762969772571076" x2="54.21961505331055" y1="26.818313649435495" y2="22.513508569990535" /><path d="M 56.25429882871897 25.957352633546506 a86.0,86.0 0 0,1 42.265352541879196,-11.944610805530505" fill="none" id="id132" stroke="none" /><text fill="#e1ed5e" style="font-size:6.75px; font-family:Arial;" text-anchor="middle"><textPath startOffset="22.20632615414155" xlink:href="#id132">December</textPath></text><path d="M 90.91171255644093 81.06846463323043 l -9.644376684350402 -20.08990796386234 a43.284936697825756,43.284936697825756 0 0,0 0.6744654480974173,-0.3166705714760301 l 9.297133024953377 20.252943517978377" fill="red" stroke="none" /><path d="M 92.23578459929587 80.48803036053334 l -3.175109031663512 -7.979251969515985 a29.58776917225748,29.58776917225748 0 0,0 0.47483696767401723,-0.18422936642261353 l 3.0372888989898184 8.032724039829152" fill="red" stroke="none" /><path d="M 93.59665428221793 80.00007090966166 l -6.124739721744481 -19.129743345186196 a41.08630172808848,41.08630172808848 0 0,0 0.6754091589407908,-0.20985291340622098 l 5.794545190092962 19.23233639347494" fill="red" stroke="none" /></svg>