<?xml version="1.0" encoding="utf-8" ?>
<svg baseProfile="full" height="200mm" version="1.1" viewBox="0,0,200,200" width="200mm" xmlns="http://www.w3.org/2000/svg" xmlns:ev="http://www.w3.org/2001/xml-events" xmlns:xlink="http://www.w3.org/1999/xlink"><defs /><rect fill="#1a1a1a" height="200" width="200" x="0" y="0" /><rect fill="#1a1a1a" height="200" width="180" x="10" y="0" /><text alignment-baseline="middle" fill="#e1ed5e" style="dominant-baseline: central; font-size:9.0px; font-family:Arial;" text-anchor="middle" x="100.0" y="100.0">2023</text><line stroke="#e1ed5e" stroke-width="0.3" x1="100.0" x2="100.0" y1="15.0" y2="10.0" /><path d="M 100.0 14.0 a86.0,86.0 0 0,1 42.46469731375804,11.215312516191453" fill="none" id="id97" stroke="none" /><text fill="#e1ed5e" style="font-size:6.75px; font-family:Arial;" text-anchor="middle"><textPath startOffset="22.20632615414155" xlink:href="#id97">January</textPath></text><line stroke="#e1ed5e" stroke-width="0.3" x1="143.23703022742887" x2="145.7803849466894" y1="26.81831364943548" y2="22.513508569990506" /><path d="M 143.74570117128098 25.957352633546492 a86.0,86.0 0 0,1 28.547481713284135,27.462654790039103" fill="none" id="id98" stroke="none" /><text fill="#e1ed5e" style="font-size:6.75px; font-family:Arial;" text-anchor="middle"><textPath startOffset="19.985693538727396" xlink:href="#id98">February</textPath></text><line stroke="#e1ed5e" stroke-width="0.3" x1="172.23445277983987" x2="176.4835382374775" y1="55.19839476539836" y2="52.563006222186495" /><path d="M 173.08426987136738 54.67131705675599 a86.0,86.0 0 0,1 12.851231095245387,41.99856678651699" fill="none" id="id99" stroke="none" /><text fill="#e1ed5e" style="font-size:6.75px; font-family:Arial;" text-anchor="middle"><textPath startOffset="22.20632615414155" xlink:href="#id99">March</textPath></text><path d="M 119.97218684219823 93.5106431181261 l 6.1573511279595134 -2.0006446580959487 a27.474222112420314,27.474222112420314 0 0,0 0.14227004725999998,0.45103492861049993 l -6.19087665898772 1.8943595630590295" fill="red" stroke="none" /><path d="M 120.18372546131832 94.20196356495316 l 3.115641415156276 -0.8950083312536842 a24.2416448511289,24.2416448511289 0 0,0 0.11175771070576594,0.4020519470562076 l -3.1305858964284052 0.8412450807785247" fill="red" stroke="none" /><path d="M 120.45610955862082 95.25157060432595 l 7.800777452180364 -1.8107764263236552 a29.00818581980807,29.00818581980807 0 0,0 0.10871938318603785,0.4873676770942602 l -7.83079122236844 1.6762305796794312" fill="red" stroke="none" /><line stroke="#e1ed5e" stroke-width="0.3" x1="184.98032266829074" x2="189.97916517819016" y1="98.17113171792111" y2="98.06355123074" /><path d="M 185.9800911702706 98.14961562048488 a86.0,86.0 0 0,1 -9.607161424134198,41.387399972396054" fill="none" id="id100" stroke="none" /><text fill="#e1ed5e" style="font-size:6.75px; font-family:Arial;" text-anchor="middle"><textPath startOffset="21.466115282336823" xlink:href="#id100">April</textPath></text><path d="M 120.89721153311464 102.0752229133903 l 6.85264763328886 0.680510476886162 a27.886354194722433,27.886354194722433 0 0,0 -0.0515468613983625,0.47725991746698654 l -6.839918470389446 -0.7983667162379399" fill="red" stroke="none" /><line stroke="#e1ed5e" stroke-width="0.3" x1="174.80103733775053" x2="179.2010983576182" y1="140.37084112569926" y2="142.7455964860345" /><path d="M 175.68104954172406 140.8457921977663 a86.0,86.0 0 0,1 -30.038265399797805,32.042727171017184" fill="none" id="id101" stroke="none" /><text fill="#e1ed5e" style="font-size:6.75px; font-family:Arial;" text-anchor="middle"><textPath startOffset="22.206326154141568" xlink:href="#id101">May</textPath></text><path d="M 116.498646956653 112.99209946851258 l 10.36756158648495 8.164087135837937 a34.196160502627755,34.196160502627755 0 0,0 -0.3681494936257818,0.45932309887057526 l -10.225494180804315 -8.341338068286761" fill="red" stroke="none" /><path d="M 116.27256486870786 113.27417163493432 l 8.705403387929193 7.1013401793178295 a32.23445951031748,32.23445951031748 0 0,0 -0.3544316972477104,0.42693581170556044 l -8.581875690787939 -7.25013724813716" fill="red" stroke="none" /><path d="M 115.32070863581623 114.36230785411682 l 21.940407853687326 20.56790580188144 a51.073580529448314,51.073580529448314 0 0,0 -0.6067868447483921,0.6362135808168528 l -21.58311445755997 -20.942526499280802" fill="red" stroke="none" /><path d="M 114.81725581225074 114.88116024355365 l 19.136243583902942 19.218775111940158 a48.12115659970638,48.12115659970638 0 0,0 -0.5920049094888575,0.5794014044515502 l -18.80258872203829 -19.54532661931428" fill="red" stroke="none" /><path d="M 113.20401910651253 116.32954008644616 l 14.368501443202392 17.769666826913898 a43.852021636232394,43.852021636232394 0 0,0 -0.591046959682485,0.469563450871529 l -14.060496990802555 -18.014364191790552" fill="red" stroke="none" /><path d="M 112.63410532772338 116.77436683061366 l 37.90231598317012 50.32310049184099 a84.0,84.0 0 0,0 -1.1624601183257428,0.8599602050409239 l -37.03047089442582 -50.96807064562168" fill="red" stroke="none" /><line stroke="#e1ed5e" stroke-width="0.3" x1="143.8653032363475" x2="146.44561519142675" y1="172.8068346515853" y2="177.08958963109032" /><path d="M 144.38136562736335 173.6633856474863 a86.0,86.0 0 0,1 -40.68145358897372,12.25698825130547" fill="none" id="id102" stroke="none" /><text fill="#e1ed5e" style="font-size:6.75px; font-family:Arial;" text-anchor="middle"><textPath startOffset="21.466115282336833" xlink:href="#id102">June</textPath></text><path d="M 109.2508944713604 118.85261126421891 l 3.5088765103791286 7.150820391381975 a28.965327779501273,28.965327779501273 0 0,0 -0.44949682812192443,0.2157857933757842 l -3.3852670142569714 -7.21016046125732" fill="red" stroke="none" /><path d="M 108.92500713936063 119.00905698771935 l 3.3587963817484376 7.153781597464977 a28.903043988127294,28.903043988127294 0 0,0 -0.452170236659138,0.20756917810059983 l -3.2351581493218804 -7.210537845899651" fill="red" stroke="none" /><path d="M 108.2653958097858 119.30500536409082 l 3.130580896778287 7.311916137575906 a28.95390811829104,28.95390811829104 0 0,0 -0.4598549865018201,0.1922194216531045 l -3.0042544507790057 -7.364720602248984" fill="red" stroke="none" /><path d="M 107.93186726928326 119.44442032107085 l 2.95286283241099 7.238737628177097 a28.817846337490987,28.817846337490987 0 0,0 -0.46091939136320564,0.1834093381155562 l -2.827822365005918 -7.288493810698722" fill="red" stroke="none" /><path d="M 107.2578585660854 119.70592522655815 l 2.748649418794136 7.462900995877906 a28.952984653682716,28.952984653682716 0 0,0 -0.46914925423979525,0.1682202310394346 l -2.619780603924606 -7.509108767957301" fill="red" stroke="none" /><path d="M 106.57524785965236 119.94407469862006 l 2.514072818442864 7.6256982488027 a29.029435591511138,29.029435591511138 0 0,0 -0.4759150018197446,0.15237295468227 l -2.3824364715321784 -7.667844050144677" fill="red" stroke="none" /><path d="M 105.53697534728816 120.25689768951611 l 2.0899578853309855 7.646063130709466 a28.9265506597291,28.9265506597291 0 0,0 -0.481433614860605,0.1271509933667198 l -1.9580338276588833 -7.68090547337977" fill="red" stroke="none" /><path d="M 105.18746579009965 120.34920634021253 l 1.4570747723986157 5.715761105016951 a26.898558459656485,26.898558459656485 0 0,0 -0.4496500282097676,0.11051303700312697 l -1.3584714594456369 -5.7399954003341085" fill="red" stroke="none" /><path d="M 104.83641907484287 120.43548508189849 l 1.820055689380349 7.690342857595529 a28.902782799736833,28.902782799736833 0 0,0 -0.48512612206579975,0.11041312594712421 l -1.6874094179216872 -7.720532717120338" fill="red" stroke="none" /><path d="M 104.48393922423573 120.51570834832081 l 2.3270092843120334 10.646942657639965 a31.89827326526308,31.89827326526308 0 0,0 -0.5374229260432891,0.1126221994176058 l -2.143394896839366 -10.685420837784113" fill="red" stroke="none" /><path d="M 103.06178313531738 120.77559828337769 l 0.9323096145604205 6.326146945031825 a27.39447702220731,27.39447702220731 0 0,0 -0.46710376100198925,0.06473632501571203 l -0.8232772623716008 -6.34125783554014" fill="red" stroke="none" /><path d="M 102.34483914955558 120.86867818915974 l 1.8953131019467226 16.86797117820239 a37.97411745638274,37.97411745638274 0 0,0 -0.6502026099993048,0.06739615904450448 l -1.604677895341815 -16.89809670570265" fill="red" stroke="none" /><path d="M 101.98527174616119 120.90594882070398 l 1.6021122629999454 16.871079256562204 a37.94697846179248,37.94697846179248 0 0,0 -0.6508009484549474,0.05615384426026935 l -1.3114669968034565 -16.896157353101138" fill="red" stroke="none" /><path d="M 101.26447882468166 120.96189622390904 l 0.5068548981730067 8.40238647630761 a29.41766003026013,29.41766003026013 0 0,0 -0.5057202985847518,0.026139962893738274 l -0.36214653117477535 -8.40986624596355" fill="red" stroke="none" /><line stroke="#e1ed5e" stroke-width="0.3" x1="102.19456741930631" x2="102.32365962044197" y1="184.97166512339345" y2="189.96999836594603" /><path d="M 102.22038585953345 185.97133177190398 a86.0,86.0 0 0,1 -42.740103519485714,-10.115201625700543" fill="none" id="id103" stroke="none" /><text fill="#e1ed5e" style="font-size:6.75px; font-family:Arial;" text-anchor="middle"><textPath startOffset="22.20632615414155" xlink:href="#id103">July</textPath></text><path d="M 100.54218724476979 120.99299961872073 l 0.6830343988023961 26.44647400312777 a47.455292914425655,47.455292914425655 0 0,0 -0.8167740851059184,0.014061506589721297 l -0.22770062380380976 -26.45431298699665" fill="red" stroke="none" /><path d="M 99.45781275523022 120.99299961872073 l -0.6806535911503026 26.3542912846769 a47.36307945648123,47.36307945648123 0 0,0 -0.814824604268737,-0.0280642068970444 l 1.1341985470936826 -26.338670279353764" fill="red" stroke="none" /><path d="M 98.37488393609728 120.93702456842531 l -1.9890322082312506 25.62550277862483 a46.70258044988266,46.70258044988266 0 0,0 -0.8009618916741917,-0.06911036228552285 l 2.4298384176469843 -25.587468164060645" fill="red" stroke="none" /><path d="M 97.2962882734958 120.8252237178851 l -2.1374157183727895 16.463352981343945 a37.60152213929415,37.60152213929415 0 0,0 -0.6411442859969818,-0.0888567559191385 l 2.420488595556602 -16.424121659932204" fill="red" stroke="none" /><path d="M 95.86986931433489 120.58985236759428 l -3.2866988632359346 16.38510970261709 a37.71149931587208,37.71149931587208 0 0,0 -0.6353643076312087,-0.13314676819557375 l 3.56825463229653 -16.326106953694975" fill="red" stroke="none" /><path d="M 94.81253420990036 120.34920634021253 l -4.1005358293250485 16.0854361402482 a37.599868972663046,37.599868972663046 0 0,0 -0.6257863597610231,-0.16527586529660246 l 4.376812631897561 -16.012468925648015" fill="red" stroke="none" /><path d="M 93.76903079525671 120.05430185196036 l -6.081045024807866 19.571772624076537 a41.49471620301907,41.49471620301907 0 0,0 -0.680273575248027,-0.21780211646295908 l 6.417039945146833 -19.46419766095387" fill="red" stroke="none" /><path d="M 92.06813273071674 119.44442032107085 l -9.915927765094258 24.30820647800529 a47.2528955663924,47.2528955663924 0 0,0 -0.7504852044179853,-0.31370287631287125 l 10.332884429009704 -24.133918558672445" fill="red" stroke="none" /><line stroke="#e1ed5e" stroke-width="0.3" x1="58.666819895761336" x2="56.23545636021788" y1="174.27360380694188" y2="178.64263932499728" /><path d="M 58.180547188652646 175.14741091055294 a86.0,86.0 0 0,1 -31.652253787137756,-30.449443065178592" fill="none" id="id104" stroke="none" /><text fill="#e1ed5e" style="font-size:6.75px; font-family:Arial;" text-anchor="middle"><textPath startOffset="22.20632615414155" xlink:href="#id104">August</textPath></text><path d="M 89.7882731507175 118.34994917583269 l -8.060864554047031 14.484959993855234 a37.576839366485956,37.576839366485956 0 0,0 -0.5624917042885039,-0.31939746982673084 l 8.309005025256742 -14.34405935823387" fill="red" stroke="none" /><path d="M 89.1626897886671 117.98757091392108 l -8.460700310895973 14.042916909818487 a37.39472369656961,37.39472369656961 0 0,0 -0.5484929862536965,-0.3369291906265293 l 8.701172497081977 -13.89519925236358" fill="red" stroke="none" /><path d="M 87.65650970185807 116.9893568818739 l -15.061876896791734 20.730895049106614 a46.62479551510961,46.62479551510961 0 0,0 -0.6452317298977128,-0.47732700846625287 l 15.41649359710801 -20.468558091900594" fill="red" stroke="none" /><path d="M 87.07902340077011 116.55440617244103 l -9.95933686514641 12.759941665990318 a37.18655312637438,37.18655312637438 0 0,0 -0.5012083444803891,-0.3981902215794323 l 10.177502702344158 -12.586617530405755" fill="red" stroke="none" /><path d="M 85.70375840098266 115.38237550388516 l -21.819893900297377 23.477625157956073 a53.05162480870083,53.05162480870083 0 0,0 -0.6635600364089923,-0.6274374317538843 l 22.220789771097184 -23.098553089456257" fill="red" stroke="none" /><path d="M 83.95833913139862 113.55231037782056 l -20.09885638888638 16.97990889176417 a47.31123969169242,47.31123969169242 0 0,0 -0.5202073568955939,-0.6266232729636598 l 20.38815974567551 -16.631424361686747" fill="red" stroke="none" /><line stroke="#e1ed5e" stroke-width="0.3" x1="26.63291911575756" x2="22.317208475507996" y1="142.92168965132927" y2="145.44649492493687" /><path d="M 25.769776987707644 143.4266507060508 a86.0,86.0 0 0,1 -11.730757126820373,-40.83630448921669" fill="none" id="id105" stroke="none" /><text fill="#e1ed5e" style="font-size:6.75px; font-family:Arial;" text-anchor="middle"><textPath startOffset="21.46611528233685" xlink:href="#id105">September</textPath></text><path d="M 79.58551787078972 104.9243191809786 l -13.038406674960143 3.145084733108995 a34.41236767316198,34.41236767316198 0 0,0 -0.1339451170759009,-0.5770320586935738 l 13.0906123579666 -2.920184017066847" fill="red" stroke="none" /><line stroke="#e1ed5e" stroke-width="0.3" x1="15.007084014347285" x2="10.007500721073583" y1="101.09737516637583" y2="101.16192664675087" /><path d="M 14.007167355692545 101.11028546245083 a86.0,86.0 0 0,1 10.666146001902534,-42.60595125391555" fill="none" id="id106" stroke="none" /><text fill="#e1ed5e" style="font-size:6.75px; font-family:Arial;" text-anchor="middle"><textPath startOffset="22.20632615414155" xlink:href="#id106">October</textPath></text><path d="M 79.08570108090925 98.10471618934814 l -2.6275549782040355 -0.23811280650875846 a23.63832198037091,23.63832198037091 0 0,0 0.0402108954851334,-0.4049182299727012 l 2.623066957036673 0.28330656718589003" fill="red" stroke="none" /><path d="M 79.3925641242962 95.95851677861259 l -9.847795226963884 -1.9313270907399724 a31.035392128045558,31.035392128045558 0 0,0 0.10732438228061444,-0.5233518034788399 l 9.813091548768273 2.1005545503822147" fill="red" stroke="none" /><path d="M 80.02781315780177 93.51064311812611 l -16.82662794491761 -5.4673028404867585 a38.69256364539285,38.69256364539285 0 0,0 0.21126638373755618,-0.6316595968824092 l 16.730024267408282 5.75613554029149" fill="red" stroke="none" /><path d="M 80.803312248108 91.48605970444005 l -15.176758696983589 -6.7310579354244675 a37.60244396095068,37.60244396095068 0 0,0 0.26751038115625914,-0.5894236650330641 l 15.058645998863977 6.991303609299603" fill="red" stroke="none" /><line stroke="#e1ed5e" stroke-width="0.3" x1="26.266209847984243" x2="21.928928074336255" y1="57.711370442889674" y2="55.22380399835377" /><path d="M 25.398753493254645 57.213857153982495 a86.0,86.0 0 0,1 29.58750427330803,-30.492523968695096" fill="none" id="id107" stroke="none" /><text fill="#e1ed5e" style="font-size:6.75px; font-family:Arial;" text-anchor="middle"><textPath startOffset="21.46611528233685" xlink:href="#id107">November</textPath></text><path d="M 81.78341655067845 89.55222093294921 l -14.277816392081602 -8.188773248253668 a37.45940607182741,37.45940607182741 0 0,0 0.32561200849998384,-0.5565764712097991 l 14.134744709111294 8.433329131817358" fill="red" stroke="none" /><line stroke="#e1ed5e" stroke-width="0.3" x1="56.762969772571076" x2="54.21961505331055" y1="26.818313649435495" y2="22.513508569990535" /><path d="M 56.25429882871897 25.957352633546506 a86.0,86.0 0 0,1 42.265352541879196,-11.944610805530505" fill="none" id="id108" stroke="none" /><text fill="#e1ed5e" style="font-size:6.75px; font-family:Arial;" text-anchor="middle"><textPath startOffset="22.20632615414155" xlink:href="#id108">December</textPath></text><path d="M 91.56875222667455 80.76684994638697 l -0.7585253790306947 -1.7303289888510685 a22.88928535703107,22.88928535703107 0 0,0 0.3622133950816137,-0.15508087262823178 l 0.7286282261587728 1.7431293894420863" fill="red" stroke="none" /></svg>