<?xml version="1.0" encoding="utf-8" ?>
<svg baseProfile="full" height="200mm" version="1.1" viewBox="0,0,200,200" width="200mm" xmlns="http://www.w3.org/2000/svg" xmlns:ev="http://www.w3.org/2001/xml-events" xmlns:xlink="http://www.w3.org/1999/xlink"><defs /><rect fill="#1a1a1a" height="200" width="200" x="0" y="0" /><rect fill="#1a1a1a" height="200" width="180" x="10" y="0" /><text alignment-baseline="middle" fill="#e1ed5e" style="dominant-baseline: central; font-size:9.0px; font-family:Arial;" text-anchor="middle" x="100.0" y="100.0">2022</text><line stroke="#e1ed5e" stroke-width="0.3" x1="100.0" x2="100.0" y1="15.0" y2="10.0" /><path d="M 100.0 14.0 a86.0,86.0 0 0,1 42.46469731375804,11.215312516191453" fill="none" id="id85" stroke="none" /><text fill="#e1ed5e" style="font-size:6.75px; font-family:Arial;" text-anchor="middle"><textPath startOffset="22.20632615414155" xlink:href="#id85">January</textPath></text><line stroke="#e1ed5e" stroke-width="0.3" x1="143.23703022742887" x2="145.7803849466894" y1="26.81831364943548" y2="22.513508569990506" /><path d="M 143.74570117128098 25.957352633546492 a86.0,86.0 0 0,1 28.547481713284135,27.462654790039103" fill="none" id="id86" stroke="none" /><text fill="#e1ed5e" style="font-size:6.75px; font-family:Arial;" text-anchor="middle"><textPath startOffset="19.985693538727396" xlink:href="#id86">February</textPath></text><line stroke="#e1ed5e" stroke-width="0.3" x1="172.23445277983987" x2="176.4835382374775" y1="55.19839476539836" y2="52.563006222186495" /><path d="M 173.08426987136738 54.67131705675599 a86.0,86.0 0 0,1 12.851231095245387,41.99856678651699" fill="none" id="id87" stroke="none" /><text fill="#e1ed5e" style="font-size:6.75px; font-family:Arial;" text-anchor="middle"><textPath startOffset="22.20632615414155" xlink:href="#id87">March</textPath></text><path d="M 119.47837535516314 92.15188598940014 l 2.270849603192661 -0.9149575496838029 a23.448245338613688,23.448245338613688 0 0,0 0.14761948941528957,0.37567549893449337 l -2.2862626424896506 0.8757330458535252" fill="#ff0000" stroke="none" /><path d="M 119.7369772167798 92.82701384747503 l 10.319190790682459 -3.7502912342574577 a31.979543839169914,31.979543839169914 0 0,0 0.18357311842474136,0.5189859260087258 l -10.38221698991701 3.5721076818221174" fill="#ff7b0b" stroke="none" /><line stroke="#e1ed5e" stroke-width="0.3" x1="184.98032266829074" x2="189.97916517819016" y1="98.17113171792111" y2="98.06355123074" /><path d="M 185.9800911702706 98.14961562048488 a86.0,86.0 0 0,1 -9.607161424134198,41.387399972396054" fill="none" id="id88" stroke="none" /><text fill="#e1ed5e" style="font-size:6.75px; font-family:Arial;" text-anchor="middle"><textPath startOffset="21.466115282336823" xlink:href="#id88">April</textPath></text><path d="M 118.64920377521936 109.65438752849418 l 10.562985817488583 5.4682848538300775 a32.89448648000797,32.89448648000797 0 0,0 -0.264640046858453,0.500599236450605 l -10.467293262405237 -5.649299105366817" fill="#ff870c" stroke="none" /><line stroke="#e1ed5e" stroke-width="0.3" x1="174.80103733775053" x2="179.2010983576182" y1="140.37084112569926" y2="142.7455964860345" /><path d="M 175.68104954172406 140.8457921977663 a86.0,86.0 0 0,1 -30.038265399797805,32.042727171017184" fill="none" id="id89" stroke="none" /><text fill="#e1ed5e" style="font-size:6.75px; font-family:Arial;" text-anchor="middle"><textPath startOffset="22.206326154141568" xlink:href="#id89">May</textPath></text><path d="M 118.30583269289576 110.29060199501025 l 5.314303612637147 2.98742943168695 a27.096438099136055,27.096438099136055 0 0,0 -0.23205906207191573,0.40461453503893846 l -5.262092554412852 -3.078463812584203" fill="#ff3605" stroke="none" /><path d="M 117.94076556474637 110.91462005526583 l 53.8222966942391 32.74386016579747 a84.0,84.0 0 0,0 -0.7621414413281484,1.228814674538906 l -53.25069061324299 -33.665471171701654" fill="#4dd2ff" stroke="none" /><path d="M 117.55443506779139 111.5257021239791 l 8.357978532415691 5.487591628623982 a30.99847323499271,30.99847323499271 0 0,0 -0.29669508844011494,0.4435189010997435 l -8.262280338564857 -5.630647443929533" fill="#ff6d0a" stroke="none" /><path d="M 116.71984013943494 112.70617746262583 l 47.96414559234081 36.450165830359516 a81.24262487196233,81.24262487196233 0 0,0 -0.855729274904184,1.1061454412807628 l -47.32960950021856 -37.27038926575353" fill="#49ecff" stroke="none" /><line stroke="#e1ed5e" stroke-width="0.3" x1="143.8653032363475" x2="146.44561519142675" y1="172.8068346515853" y2="177.08958963109032" /><path d="M 144.38136562736335 173.6633856474863 a86.0,86.0 0 0,1 -40.68145358897372,12.25698825130547" fill="none" id="id90" stroke="none" /><text fill="#e1ed5e" style="font-size:6.75px; font-family:Arial;" text-anchor="middle"><textPath startOffset="21.466115282336833" xlink:href="#id90">June</textPath></text><path d="M 105.88484417918355 120.15858648285463 l 15.628044737221911 53.534007324713365 a76.76850116823182,76.76850116823182 0 0,0 -1.2716842298930007,0.3593906658781991 l -14.704229339224305 -53.79508678393008" fill="#44ffe6" stroke="none" /><path d="M 105.53697534728816 120.25689768951611 l 7.014509983347901 25.66242436754938 a47.60382255854748,47.60382255854748 0 0,0 -0.7922852829960942,0.20924974420814899 l -6.57173425754031 -25.779365461061115" fill="#bcff1f" stroke="none" /><path d="M 105.18746579009965 120.34920634021253 l 6.5478196969363465 25.68555427310218 a47.50701116874676,47.50701116874676 0 0,0 -0.7941514391645778,0.1951831021381331 l -6.104714973028558 -25.794458633554346" fill="#bdff1f" stroke="none" /><path d="M 104.48393922423573 120.51570834832081 l 1.338635516549302 6.124760945418533 a27.26934140757156,27.26934140757156 0 0,0 -0.4594345633902972,0.09627897975702449 l -1.2330094917296268 -6.146895905902099" fill="#ff3805" stroke="none" /><path d="M 104.13013068566511 120.58985236759428 l 11.044951089339742 55.06215895930728 a77.15899121089988,77.15899121089988 0 0,0 -1.3044733669926991,0.25000542545693105 l -10.09551010777534 -55.24412158311268" fill="#44ffea" stroke="none" /><path d="M 103.7750983002368 120.6578951692458 l 5.127371445323605 28.057733438261728 a49.52238320391321,49.52238320391321 0 0,0 -0.8398784625347128,0.1460236363339883 l -4.643644011316842 -28.141835653116722" fill="#a6ff21" stroke="none" /><path d="M 103.41894727170886 120.7198165907248 l 4.414521131377986 26.75328424480591 a48.11505512999675,48.11505512999675 0 0,0 -0.8183320053778036,0.12780662939231147 l -3.9533532623916656 -26.82530918154533" fill="#b6ff1f" stroke="none" /><path d="M 103.06178313531738 120.77559828337769 l 7.198789245219331 48.847075993144614 a70.37468379318626,70.37468379318626 0 0,0 -1.1999601033622636,0.16630353626464608 l -6.356900550670236 -48.963754094901866" fill="#3cffa1" stroke="none" /><line stroke="#e1ed5e" stroke-width="0.3" x1="102.19456741930631" x2="102.32365962044197" y1="184.97166512339345" y2="189.96999836594603" /><path d="M 102.22038585953345 185.97133177190398 a86.0,86.0 0 0,1 -42.740103519485714,-10.115201625700543" fill="none" id="id91" stroke="none" /><text fill="#e1ed5e" style="font-size:6.75px; font-family:Arial;" text-anchor="middle"><textPath startOffset="22.20632615414155" xlink:href="#id91">July</textPath></text><path d="M 96.93821686468263 120.77559828337769 l -8.136011398139807 55.20655675674242 a76.80285467972121,76.80285467972121 0 0,0 -1.3062488220991992,-0.20400920164805275 l 9.085096083847525 -55.05832924774726" fill="#44ffe6" stroke="none" /><path d="M 93.42475214034765 119.94407469862007 l -8.299753976536314 25.174855278681648 a47.50772065594467,47.50772065594467 0 0,0 -0.77444431903301,-0.2627335607742741 l 8.73186802850655 -25.02825873100925" fill="#bdff1f" stroke="none" /><path d="M 92.06813273071674 119.44442032107085 l -9.933166645218456 24.350466392300323 a47.29853633045436,47.29853633045436 0 0,0 -0.7512100852477476,-0.31400587655850143 l 10.350848189963665 -24.175875472721845" fill="#c0ff1e" stroke="none" /><line stroke="#e1ed5e" stroke-width="0.3" x1="58.666819895761336" x2="56.23545636021788" y1="174.27360380694188" y2="178.64263932499728" /><path d="M 58.180547188652646 175.14741091055294 a86.0,86.0 0 0,1 -31.652253787137756,-30.449443065178592" fill="none" id="id92" stroke="none" /><text fill="#e1ed5e" style="font-size:6.75px; font-family:Arial;" text-anchor="middle"><textPath startOffset="22.20632615414155" xlink:href="#id92">August</textPath></text><line stroke="#e1ed5e" stroke-width="0.3" x1="26.63291911575756" x2="22.317208475507996" y1="142.92168965132927" y2="145.44649492493687" /><path d="M 25.769776987707644 143.4266507060508 a86.0,86.0 0 0,1 -11.730757126820373,-40.83630448921669" fill="none" id="id93" stroke="none" /><text fill="#e1ed5e" style="font-size:6.75px; font-family:Arial;" text-anchor="middle"><textPath startOffset="21.46611528233685" xlink:href="#id93">September</textPath></text><line stroke="#e1ed5e" stroke-width="0.3" x1="15.007084014347285" x2="10.007500721073583" y1="101.09737516637583" y2="101.16192664675087" /><path d="M 14.007167355692545 101.11028546245083 a86.0,86.0 0 0,1 10.666146001902534,-42.60595125391555" fill="none" id="id94" stroke="none" /><text fill="#e1ed5e" style="font-size:6.75px; font-family:Arial;" text-anchor="middle"><textPath startOffset="22.20632615414155" xlink:href="#id94">October</textPath></text><line stroke="#e1ed5e" stroke-width="0.3" x1="26.266209847984243" x2="21.928928074336255" y1="57.711370442889674" y2="55.22380399835377" /><path d="M 25.398753493254645 57.213857153982495 a86.0,86.0 0 0,1 29.58750427330803,-30.492523968695096" fill="none" id="id95" stroke="none" /><text fill="#e1ed5e" style="font-size:6.75px; font-family:Arial;" text-anchor="middle"><textPath startOffset="21.46611528233685" xlink:href="#id95">November</textPath></text><line stroke="#e1ed5e" stroke-width="0.3" x1="56.762969772571076" x2="54.21961505331055" y1="26.818313649435495" y2="22.513508569990535" /><path d="M 56.25429882871897 25.957352633546506 a86.0,86.0 0 0,1 42.265352541879196,-11.944610805530505" fill="none" id="id96" stroke="none" /><text fill="#e1ed5e" style="font-size:6.75px; font-family:Arial;" text-anchor="middle"><textPath startOffset="22.20632615414155" xlink:href="#id96">December</textPath></text></svg>