<?xml version="1.0" encoding="utf-8" ?>
<svg baseProfile="full" height="200mm" version="1.1" viewBox="0,0,200,200" width="200mm" xmlns="http://www.w3.org/2000/svg" xmlns:ev="http://www.w3.org/2001/xml-events" xmlns:xlink="http://www.w3.org/1999/xlink"><defs /><rect fill="#1a1a1a" height="200" width="200" x="0" y="0" /><rect fill="#1a1a1a" height="200" width="180" x="10" y="0" /><text alignment-baseline="middle" fill="#e1ed5e" style="dominant-baseline: central; font-size:9.0px; font-family:Arial;" text-anchor="middle" x="100.0" y="100.0">2024</text><line stroke="#e1ed5e" stroke-width="0.3" x1="100.0" x2="100.0" y1="15.0" y2="10.0" /><path d="M 100.0 14.0 a86.0,86.0 0 0,1 42.35913384403234,11.155469271406648" fill="none" id="id109" stroke="none" /><text fill="#e1ed5e" style="font-size:6.75px; font-family:Arial;" text-anchor="middle"><textPath startOffset="22.145653131862478" xlink:href="#id109">January</textPath></text><line stroke="#e1ed5e" stroke-width="0.3" x1="143.13028292997686" x2="145.6673583964461" y1="26.7553504044142" y2="22.446841604673864" /><path d="M 143.63769802327073 25.89364864446614 a86.0,86.0 0 0,1 29.32050498858742,28.57503671076993" fill="none" id="id110" stroke="none" /><text fill="#e1ed5e" style="font-size:6.75px; font-family:Arial;" text-anchor="middle"><textPath startOffset="20.669276256404974" xlink:href="#id110">February</textPath></text><line stroke="#e1ed5e" stroke-width="0.3" x1="172.87174338648825" x2="177.1583165268699" y1="56.24261187166439" y2="53.66864786411523" /><path d="M 173.72905801456457 55.72781907015455 a86.0,86.0 0 0,1 12.242430191666344,42.057860355516425" fill="none" id="id111" stroke="none" /><text fill="#e1ed5e" style="font-size:6.75px; font-family:Arial;" text-anchor="middle"><textPath startOffset="22.145653131862474" xlink:href="#id111">March</textPath></text><path d="M 120.98066250479742 99.09900007780936 l 36.5884362918996 -1.5712648847261508 a57.622159188452684,57.622159188452684 0 0,0 0.033956774089264063,0.9886144275185017 l -36.61001775298571 0.9429441926435292" fill="red" stroke="none" /><line stroke="#e1ed5e" stroke-width="0.3" x1="184.99686870605535" x2="189.99668451229388" y1="99.2704041080226" y2="99.22748670261217" /><path d="M 185.99683186730306 99.26182062694052 a86.0,86.0 0 0,1 -10.086455211305974,41.156179273409016" fill="none" id="id112" stroke="none" /><text fill="#e1ed5e" style="font-size:6.75px; font-family:Arial;" text-anchor="middle"><textPath startOffset="21.40746469413373" xlink:href="#id112">April</textPath></text><path d="M 120.98066250479742 100.90099992219065 l 45.01995881656835 1.9333507405440116 a66.06145289414748,66.06145289414748 0 0,0 -0.05838074113832735,1.1325707815432144 l -44.980136485973446 -2.705893315463957" fill="red" stroke="none" /><path d="M 120.77682067341334 103.0534771498775 l 62.33046202024003 9.160431449632462 a84.0,84.0 0 0,0 -0.2219140314469299,1.4248472722741976 l -62.16402649665483 -10.22906690383811" fill="red" stroke="none" /><path d="M 120.16314734710363 105.8691983318838 l 59.57645367049003 17.34183738694052 a83.04911889710549,83.04911889710549 0 0,0 -0.4101981063078039,1.365416086194932 l -59.2699792441786 -18.361991076726174" fill="red" stroke="none" /><path d="M 119.83427380445688 106.89939002012753 l 58.564102328438345 20.37163483402961 a83.00610927438397,83.00610927438397 0 0,0 -0.47969558604062407,1.3417939288323217 l -58.20576657235378 -21.373963719242855" fill="red" stroke="none" /><line stroke="#e1ed5e" stroke-width="0.3" x1="174.33088141563837" x2="178.70328620479359" y1="141.23008692659167" y2="143.65538615756765" /><path d="M 175.20536237346943 141.71514677278685 a86.0,86.0 0 0,1 -30.301960400862466,31.631185727798858" fill="none" id="id113" stroke="none" /><text fill="#e1ed5e" style="font-size:6.75px; font-family:Arial;" text-anchor="middle"><textPath startOffset="22.145653131862474" xlink:href="#id113">May</textPath></text><path d="M 118.36410011445183 110.18625677009912 l 11.44634697737533 6.349095717433872 a34.08930386061866,34.08930386061866 0 0,0 -0.2882439512044663,0.5092994427763305 l -11.335669661149485 -6.544651930309326" fill="red" stroke="none" /><line stroke="#e1ed5e" stroke-width="0.3" x1="143.1302829299769" x2="145.66735839644613" y1="173.24464959558577" y2="177.55315839532614" /><path d="M 143.63769802327073 174.10635135553383 a86.0,86.0 0 0,1 -40.68552437913181,11.842963189579606" fill="none" id="id114" stroke="none" /><text fill="#e1ed5e" style="font-size:6.75px; font-family:Arial;" text-anchor="middle"><textPath startOffset="21.407464694133747" xlink:href="#id114">June</textPath></text><path d="M 110.34350942703117 118.27599006163325 l 22.929269889706156 40.51382285490462 a67.55234967210116,67.55234967210116 0 0,0 -1.014108135135316,0.5625086877524362 l -22.230417566414747 -40.901464458090196" fill="red" stroke="none" /><path d="M 110.02825361518725 118.45085714620011 l 23.478350451229627 43.19752040853943 a70.16562528186675,70.16562528186675 0 0,0 -1.0632136529533212,0.5661013844504861 l -22.733347982489754 -43.59419226071249" fill="red" stroke="none" /><path d="M 109.71004243097381 118.62028667847754 l 27.7628538443208 53.23893291597914 a81.04298486595454,81.04298486595454 0 0,0 -1.2390807767398153,0.6326834734034247 l -26.844845845867404 -53.7076743410554" fill="red" stroke="none" /><line stroke="#e1ed5e" stroke-width="0.3" x1="101.45913802915013" x2="101.54496967792366" y1="184.9874750549273" y2="189.98673829345242" /><path d="M 101.47630435890484 185.9873277026323 a86.0,86.0 0 0,1 -42.54439059252881,-10.42667462771756" fill="none" id="id115" stroke="none" /><text fill="#e1ed5e" style="font-size:6.75px; font-family:Arial;" text-anchor="middle"><textPath startOffset="22.145653131862474" xlink:href="#id115">July</textPath></text><path d="M 97.84075906011543 120.88869738790638 l -4.06526998392769 39.32779937886142 a60.53735226372899,60.53735226372899 0 0,0 -1.0327790442018896,-0.11572504607376222 l 4.739784929730378 -39.25221857228068" fill="red" stroke="none" /><path d="M 97.12497278360702 120.80226474461374 l -6.189741456835561 44.785885765404416 a66.21159655546708,66.21159655546708 0 0,0 -1.1245721051889426,-0.16527337269547612 l 6.957638667632189 -44.67303131941006" fill="red" stroke="none" /><path d="M 96.76829788921471 120.74984581791261 l -6.9477789529930085 44.60972487854448 a66.14752691033124,66.14752691033124 0 0,0 -1.1204839733051286,-0.18437521141319743 l 7.712540429351201 -44.48388366863561" fill="red" stroke="none" /><path d="M 95.00130118170881 120.39639698878247 l -14.671021680867161 59.86277495636263 a82.634330552352,82.634330552352 0 0,0 -1.3748570329931504,-0.3494832814502564 l 15.69648400708569 -59.60210644307711" fill="red" stroke="none" /><path d="M 94.6519064749342 120.30758222061772 l -15.944275857083074 60.54301245824612 a83.60731818346883,83.60731818346883 0 0,0 -1.384770489627682,-0.3774253547488637 l 16.981227747645452 -60.26038660935311" fill="red" stroke="none" /><path d="M 94.30408787586889 120.21278271476187 l -16.36620358475579 58.0778828245509 a81.33981349954553,81.33981349954553 0 0,0 -1.3407124779816715,-0.39026186258745477 l 17.36077607511907 -57.78837726766093" fill="red" stroke="none" /><path d="M 93.61358852112213 120.00534299687104 l -13.470449101246256 42.19598995204013 a65.29395632613932,65.29395632613932 0 0,0 -1.0648426386059044,-0.3500349257720672 l 14.192814477499905 -41.95853410486605" fill="red" stroke="none" /><path d="M 92.93061703081489 119.77432235084164 l -14.688561208702449 41.08651992359547 a64.6331977949566,64.6331977949566 0 0,0 -1.0415512046237332,-0.3824720293252741 l 15.3917015649803 -40.82831704526147" fill="red" stroke="none" /><path d="M 92.59220618246901 119.65005319985036 l -12.451816557597805 33.029922783829015 a56.299058552456806,56.299058552456806 0 0,0 -0.9013954800398539,-0.34867913585978744 l 13.016984300131188 -32.81130375983118" fill="red" stroke="none" /><path d="M 91.59046798132341 119.24265499422711 l -22.901828769977282 52.4038660865803 a78.18967513310074,78.18967513310074 0 0,0 -1.225294005779785,-0.5480584236747341 l 23.798036178612705 -52.00300391199571" fill="red" stroke="none" /><path d="M 91.26138138417905 119.09545874513695 l -18.411719638820244 40.232930197182036 a65.24567879815882,65.24567879815882 0 0,0 -1.0144500237483096,-0.4748138336987442 l 19.099658376440047 -39.91094013191276" fill="red" stroke="none" /><path d="M 90.6110303473126 118.78422872680471 l -20.410168330073944 40.834008889884686 a66.65075304177506,66.65075304177506 0 0,0 -1.019035354952601,-0.5203267131531687 l 21.10813090674013 -40.477624225058676" fill="red" stroke="none" /><path d="M 89.97174638481275 118.45085714620012 l -22.1637190265029 40.77874665706554 a67.41267736305352,67.41267736305352 0 0,0 -1.0120113490790552,-0.5613456358725221 l 22.86047456373806 -40.39226810575987" fill="red" stroke="none" /><line stroke="#e1ed5e" stroke-width="0.3" x1="58.13341422392154" x2="55.67067388415222" y1="173.97424548756322" y2="178.32567169271397" /><path d="M 57.64086615596768 174.84453072859336 a86.0,86.0 0 0,1 -31.369924170532247,-30.572349798747897" fill="none" id="id116" stroke="none" /><text fill="#e1ed5e" style="font-size:6.75px; font-family:Arial;" text-anchor="middle"><textPath startOffset="22.145653131862474" xlink:href="#id116">August</textPath></text><path d="M 89.65649057296885 118.27599006163327 l -21.6165158916879 38.194312326065024 a64.88711944701541,64.88711944701541 0 0,0 -0.9646784490571498,-0.5569573622445804 l 22.268986808605447 -37.817608066544274" fill="red" stroke="none" /><path d="M 88.1277618465304 117.32195027204791 l -14.460929061947144 21.09892767148175 a46.57896046013375,46.57896046013375 0 0,0 -0.6556652076208868,-0.4577052364455482 l 14.820989360741798 -20.84757761923107" fill="red" stroke="none" /><path d="M 87.2517909369889 116.68781488649013 l -22.13376551779735 28.97380956621504 a57.46073527476001,57.46073527476001 0 0,0 -0.7787025634830685,-0.6055238233047803 l 22.62787802591565 -28.589584691289463" fill="red" stroke="none" /><path d="M 86.40962598614128 116.0094264158162 l -17.732907485204738 20.889320428809555 a48.401089683739045,48.401089683739045 0 0,0 -0.6288004984553348,-0.5431428942416335 l 18.088887463422935 -20.581833402103197" fill="red" stroke="none" /><path d="M 86.13680546590413 115.77377054828092 l -26.079217429459355 29.673362138811626 a60.5048604902495,60.5048604902495 0 0,0 -0.7742748600429945,-0.6923613542661564 l 26.584757316325717 -29.221305254662088" fill="red" stroke="none" /><path d="M 85.86807049272751 115.53346607816431 l -24.44741029857518 26.871986474066116 a57.328769967744186,57.328769967744186 0 0,0 -0.7222612276502403,-0.6685142095790323 l 24.90510129753939 -26.44835451835471" fill="red" stroke="none" /><path d="M 85.34317274990678 115.03919595460226 l -30.785448433928938 31.588582143193122 a65.10875601391811,65.10875601391811 0 0,0 -0.7937317909452348,-0.7869477993084478 l 31.323172145004136 -31.055454333656012" fill="red" stroke="none" /><path d="M 85.08716467003676 114.78537596483092 l -28.685530827607163 28.440356823678865 a61.394474561748886,61.394474561748886 0 0,0 -0.7356028636260425,-0.7547933411556242 l 29.169520492384017 -27.943740790455504" fill="red" stroke="none" /><path d="M 84.1078160697243 113.72728997021213 l -23.349159221490243 20.16844762181709 a51.85367912947307,51.85367912947307 0 0,0 -0.5760831068125649,-0.6786244512848322 l 23.69193689180992 -19.764656388082702" fill="red" stroke="none" /><path d="M 82.78059297857968 112.02048342749411 l -36.933752916905846 25.7826279558034 a66.04271316022633,66.04271316022633 0 0,0 -0.6409610833626537,-0.9351813759801585 l 37.37090373708382 -25.14481184475319" fill="red" stroke="none" /><path d="M 82.18462484594161 111.11811171558189 l -37.360834372799175 23.315923843989797 a65.03934887950166,65.03934887950166 0 0,0 -0.5829756680992235,-0.9522469415177448 l 37.755578005353804 -22.671139786347496" fill="red" stroke="none" /><line stroke="#e1ed5e" stroke-width="0.3" x1="26.387840678322732" x2="22.057713659400548" y1="142.50000000000003" y2="145.00000000000006" /><path d="M 25.521815274538298 143.00000000000003 a86.0,86.0 0 0,1 -11.493303480769221,-40.785679425670985" fill="none" id="id117" stroke="none" /><text fill="#e1ed5e" style="font-size:6.75px; font-family:Arial;" text-anchor="middle"><textPath startOffset="21.40746469413373" xlink:href="#id117">September</textPath></text><path d="M 81.81346652052679 110.50000000000001 l -54.13474754177593 31.2547110657568 a83.50942213151355,83.50942213151355 0 0,0 -0.7061184322334332,-1.2476436107950934 l 54.663299339030736 -30.320810684862586" fill="red" stroke="none" /><path d="M 80.9802524753101 108.90220220490708 l -35.42645543042879 16.581369928039955 a60.11490218643868,60.11490218643868 0 0,0 -0.42943662960402657,-0.9383965366571851 l 35.70587652488787 -15.970784409168083" fill="red" stroke="none" /><path d="M 80.16572619554312 106.89939002012753 l -43.78115949325204 15.229359938021993 a67.35432375405128,67.35432375405128 0 0,0 -0.3704955387489295,-1.095304227568272 l 44.03614045357334 -14.47555403597956" fill="red" stroke="none" /><path d="M 79.22317932658666 103.0534771498775 l -42.78840216196126 6.288421618255852 a64.24802430195717,64.24802430195717 0 0,0 -0.15099963332359762,-1.092558126346378 l 42.89004631184007 -5.552975183709389" fill="red" stroke="none" /><path d="M 79.03789590574601 101.26102812881392 l -61.216032486813056 3.6826045015880906 a82.32670062331471,82.32670062331471 0 0,0 -0.0727548908977766,-1.4114254467915606 l 61.270228967167405 -2.6312072614197994" fill="red" stroke="none" /><line stroke="#e1ed5e" stroke-width="0.3" x1="15.003131293944662" x2="10.003315487706104" y1="100.72959589197737" y2="100.7725132973878" /><path d="M 14.003168132696942 100.73817937305945 a86.0,86.0 0 0,1 10.791469493833604,-42.45332614584628" fill="none" id="id118" stroke="none" /><text fill="#e1ed5e" style="font-size:6.75px; font-family:Arial;" text-anchor="middle"><textPath startOffset="22.145653131862435" xlink:href="#id118">October</textPath></text><path d="M 79.13060592940154 97.66154086499901 l -27.447106688320062 -3.075505553612286 a48.61887760156672,48.61887760156672 0 0,0 0.10005745039696451,-0.8286192244993451 l 27.39026715166343 3.546218455035067" fill="red" stroke="none" /><path d="M 79.22317932658666 96.9465228501225 l -44.140400731778826 -6.487118849391286 a65.61454569675846,65.61454569675846 0 0,0 0.17334271853721994,-1.112984600684966 l 44.02253652110333 7.243891632007702" fill="red" stroke="none" /><path d="M 79.56144815229197 95.17655741523228 l -45.1600842462041 -10.657656917569993 a67.40063426395031,67.40063426395031 0 0,0 0.27541976859809136,-1.1238066431067015 l 44.970476951089715 11.431319385284812" fill="red" stroke="none" /><path d="M 79.64726062577567 94.8264132398404 l -25.456798507170003 -6.4710186324864045 a47.266379125731035,47.266379125731035 0 0,0 0.2066452765720974,-0.7846657738541475 l 25.34196374979318 6.907064910713337" fill="red" stroke="none" /><path d="M 79.73907114497095 94.47779374421319 l -25.88040434984211 -7.053819290595667 a47.82446077548822,47.82446077548822 0 0,0 0.22268323287367817,-0.7902242348907415 l 25.75550262489385 7.497051449389422" fill="red" stroke="none" /><path d="M 79.94057633289273 93.78553927170692 l -41.31097343991952 -12.798245171465592 a64.24802430195717,64.24802430195717 0 0,0 0.3354214478616554,-1.0507029080685764 l 41.08518727628061 13.50551711322556" fill="red" stroke="none" /><path d="M 80.68587082218212 91.75594674310238 l -40.68949515825413 -17.36792593611634 a65.24115581171009,65.24115581171009 0 0,0 0.44850535225057636,-1.0262680179176422 l 40.38535592398658 18.063856023809848" fill="red" stroke="none" /><line stroke="#e1ed5e" stroke-width="0.3" x1="26.387840678322718" x2="22.05771365940052" y1="57.49999999999999" y2="54.99999999999999" /><path d="M 25.521815274538284 56.99999999999999 a86.0,86.0 0 0,1 29.574782752854787,-30.34633250058573" fill="none" id="id119" stroke="none" /><text fill="#e1ed5e" style="font-size:6.75px; font-family:Arial;" text-anchor="middle"><textPath startOffset="21.40746469413373" xlink:href="#id119">November</textPath></text><path d="M 85.34317274990677 84.96080404539775 l -24.3528053223539 -24.988123625788873 a55.8921975433789,55.8921975433789 0 0,0 0.6928703259996852,-0.6637540989468381 l 23.92026251048891 25.40248985504128" fill="red" stroke="none" /><line stroke="#e1ed5e" stroke-width="0.3" x1="56.869717070023135" x2="54.33264160355391" y1="26.7553504044142" y2="22.446841604673864" /><path d="M 56.362301976729285 25.89364864446614 a86.0,86.0 0 0,1 42.16139366436587,-11.88097634709845" fill="none" id="id120" stroke="none" /><text fill="#e1ed5e" style="font-size:6.75px; font-family:Arial;" text-anchor="middle"><textPath startOffset="22.145653131862474" xlink:href="#id120">December</textPath></text></svg>