<?xml version="1.0" encoding="utf-8" ?>
<svg baseProfile="full" height="200mm" version="1.1" viewBox="0,0,200,200" width="200mm" xmlns="http://www.w3.org/2000/svg" xmlns:ev="http://www.w3.org/2001/xml-events" xmlns:xlink="http://www.w3.org/1999/xlink"><defs /><rect fill="#1a1a1a" height="200" width="200" x="0" y="0" /><rect fill="#1a1a1a" height="200" width="180" x="10" y="0" /><text alignment-baseline="middle" fill="#e1ed5e" style="dominant-baseline: central; font-size:9.0px; font-family:Arial;" text-anchor="middle" x="100.0" y="100.0">2023</text><line stroke="#e1ed5e" stroke-width="0.3" x1="100.0" x2="100.0" y1="15.0" y2="10.0" /><path d="M 100.0 14.0 a86.0,86.0 0 0,1 42.46469731375804,11.215312516191453" fill="none" id="id97" stroke="none" /><text fill="#e1ed5e" style="font-size:6.75px; font-family:Arial;" text-anchor="middle"><textPath startOffset="22.20632615414155" xlink:href="#id97">January</textPath></text><line stroke="#e1ed5e" stroke-width="0.3" x1="143.23703022742887" x2="145.7803849466894" y1="26.81831364943548" y2="22.513508569990506" /><path d="M 143.74570117128098 25.957352633546492 a86.0,86.0 0 0,1 28.547481713284135,27.462654790039103" fill="none" id="id98" stroke="none" /><text fill="#e1ed5e" style="font-size:6.75px; font-family:Arial;" text-anchor="middle"><textPath startOffset="19.985693538727396" xlink:href="#id98">February</textPath></text><line stroke="#e1ed5e" stroke-width="0.3" x1="172.23445277983987" x2="176.4835382374775" y1="55.19839476539836" y2="52.563006222186495" /><path d="M 173.08426987136738 54.67131705675599 a86.0,86.0 0 0,1 12.851231095245387,41.99856678651699" fill="none" id="id99" stroke="none" /><text fill="#e1ed5e" style="font-size:6.75px; font-family:Arial;" text-anchor="middle"><textPath startOffset="22.20632615414155" xlink:href="#id99">March</textPath></text><path d="M 119.97218684219823 93.5106431181261 l 6.1573511279595134 -2.0006446580959487 a27.474222112420314,27.474222112420314 0 0,0 0.14227004725999998,0.45103492861049993 l -6.19087665898772 1.8943595630590295" fill="red" stroke="none" /><path d="M 120.18372546131832 94.20196356495316 l 3.115641415156276 -0.8950083312536842 a24.2416448511289,24.2416448511289 0 0,0 0.11175771070576594,0.4020519470562076 l -3.1305858964284052 0.8412450807785247" fill="red" stroke="none" /><path d="M 120.45610955862082 95.25157060432595 l 7.800777452180364 -1.8107764263236552 a29.00818581980807,29.00818581980807 0 0,0 0.10871938318603785,0.4873676770942602 l -7.83079122236844 1.6762305796794312" fill="red" stroke="none" /><line stroke="#e1ed5e" stroke-width="0.3" x1="184.98032266829074" x2="189.97916517819016" y1="98.17113171792111" y2="98.06355123074" /><path d="M 185.9800911702706 98.14961562048488 a86.0,86.0 0 0,1 -9.607161424134198,41.387399972396054" fill="none" id="id100" stroke="none" /><text fill="#e1ed5e" style="font-size:6.75px; font-family:Arial;" text-anchor="middle"><textPath startOffset="21.466115282336823" xlink:href="#id100">April</textPath></text><path d="M 120.89721153311464 102.0752229133903 l 6.85264763328886 0.680510476886162 a27.886354194722433,27.886354194722433 0 0,0 -0.0515468613983625,0.47725991746698654 l -6.839918470389446 -0.7983667162379399" fill="red" stroke="none" /><line stroke="#e1ed5e" stroke-width="0.3" x1="174.80103733775053" x2="179.2010983576182" y1="140.37084112569926" y2="142.7455964860345" /><path d="M 175.68104954172406 140.8457921977663 a86.0,86.0 0 0,1 -30.038265399797805,32.042727171017184" fill="none" id="id101" stroke="none" /><text fill="#e1ed5e" style="font-size:6.75px; font-family:Arial;" text-anchor="middle"><textPath startOffset="22.206326154141568" xlink:href="#id101">May</textPath></text><path d="M 116.498646956653 112.99209946851258 l 10.36756158648495 8.164087135837937 a34.196160502627755,34.196160502627755 0 0,0 -0.3681494936257818,0.45932309887057526 l -10.225494180804315 -8.341338068286761" fill="red" stroke="none" /><path d="M 116.27256486870786 113.27417163493432 l 8.705403387929193 7.1013401793178295 a32.23445951031748,32.23445951031748 0 0,0 -0.3544316972477104,0.42693581170556044 l -8.581875690787939 -7.25013724813716" fill="red" stroke="none" /><path d="M 115.32070863581623 114.36230785411682 l 21.940407853687326 20.56790580188144 a51.073580529448314,51.073580529448314 0 0,0 -0.6067868447483921,0.6362135808168528 l -21.58311445755997 -20.942526499280802" fill="red" stroke="none" /><path d="M 114.81725581225074 114.88116024355365 l 19.136243583902942 19.218775111940158 a48.12115659970638,48.12115659970638 0 0,0 -0.5920049094888575,0.5794014044515502 l -18.80258872203829 -19.54532661931428" fill="red" stroke="none" /><path d="M 113.20401910651253 116.32954008644616 l 14.368501443202392 17.769666826913898 a43.852021636232394,43.852021636232394 0 0,0 -0.591046959682485,0.469563450871529 l -14.060496990802555 -18.014364191790552" fill="red" stroke="none" /><path d="M 112.63410532772338 116.77436683061366 l 37.90231598317012 50.32310049184099 a84.0,84.0 0 0,0 -1.1624601183257428,0.8599602050409239 l -37.03047089442582 -50.96807064562168" fill="red" stroke="none" /><line stroke="#e1ed5e" stroke-width="0.3" x1="143.8653032363475" x2="146.44561519142675" y1="172.8068346515853" y2="177.08958963109032" /><path d="M 144.38136562736335 173.6633856474863 a86.0,86.0 0 0,1 -40.68145358897372,12.25698825130547" fill="none" id="id102" stroke="none" /><text fill="#e1ed5e" style="font-size:6.75px; font-family:Arial;" text-anchor="middle"><textPath startOffset="21.466115282336833" xlink:href="#id102">June</textPath></text><path d="M 109.2508944713604 118.85261126421891 l 3.5088765103791286 7.150820391381975 a28.965327779501273,28.965327779501273 0 0,0 -0.44949682812192443,0.2157857933757842 l -3.3852670142569714 -7.21016046125732" fill="red" stroke="none" /><path d="M 108.92500713936063 119.00905698771935 l 3.3587963817484376 7.153781597464977 a28.903043988127294,28.903043988127294 0 0,0 -0.452170236659138,0.20756917810059983 l -3.2351581493218804 -7.210537845899651" fill="red" stroke="none" /><path d="M 108.2653958097858 119.30500536409082 l 3.130580896778287 7.311916137575906 a28.95390811829104,28.95390811829104 0 0,0 -0.4598549865018201,0.1922194216531045 l -3.0042544507790057 -7.364720602248984" fill="red" stroke="none" /><path d="M 107.93186726928326 119.44442032107085 l 2.95286283241099 7.238737628177097 a28.817846337490987,28.817846337490987 0 0,0 -0.46091939136320564,0.1834093381155562 l -2.827822365005918 -7.288493810698722" fill="red" stroke="none" /><path d="M 107.2578585660854 119.70592522655815 l 2.748649418794136 7.462900995877906 a28.952984653682716,28.952984653682716 0 0,0 -0.46914925423979525,0.1682202310394346 l -2.619780603924606 -7.509108767957301" fill="red" stroke="none" /><path d="M 106.57524785965236 119.94407469862006 l 2.514072818442864 7.6256982488027 a29.029435591511138,29.029435591511138 0 0,0 -0.4759150018197446,0.15237295468227 l -2.3824364715321784 -7.667844050144677" fill="red" stroke="none" /><path d="M 105.53697534728816 120.25689768951611 l 2.0899578853309855 7.646063130709466 a28.9265506597291,28.9265506597291 0 0,0 -0.481433614860605,0.1271509933667198 l -1.9580338276588833 -7.68090547337977" fill="red" stroke="none" /><path d="M 105.18746579009965 120.34920634021253 l 1.4570747723986157 5.715761105016951 a26.898558459656485,26.898558459656485 0 0,0 -0.4496500282097676,0.11051303700312697 l -1.3584714594456369 -5.7399954003341085" fill="red" stroke="none" /><path d="M 104.83641907484287 120.43548508189849 l 1.820055689380349 7.690342857595529 a28.902782799736833,28.902782799736833 0 0,0 -0.48512612206579975,0.11041312594712421 l -1.6874094179216872 -7.720532717120338" fill="red" stroke="none" /><path d="M 104.48393922423573 120.51570834832081 l 2.3270092843120334 10.646942657639965 a31.89827326526308,31.89827326526308 0 0,0 -0.5374229260432891,0.1126221994176058 l -2.143394896839366 -10.685420837784113" fill="red" stroke="none" /><path d="M 103.06178313531738 120.77559828337769 l 0.9323096145604205 6.326146945031825 a27.39447702220731,27.39447702220731 0 0,0 -0.46710376100198925,0.06473632501571203 l -0.8232772623716008 -6.34125783554014" fill="red" stroke="none" /><path d="M 102.34483914955558 120.86867818915974 l 0.9573928425443538 8.520636963712274 a29.574255380051092,29.574255380051092 0 0,0 -0.5063780102060836,0.052488151212628044 l -0.8105822357326674 -8.53585448338066" fill="red" stroke="none" /><path d="M 101.98527174616119 120.90594882070398 l 0.80942569553995 8.523675510842121 a29.562021617044074,29.562021617044074 0 0,0 -0.506996669734562,0.043745805995426684 l -0.6625847080638464 -8.536345569116211" fill="red" stroke="none" /><path d="M 101.26447882468166 120.96189622390904 l 0.2599216775676551 4.308851303136055 a25.31668377704539,25.31668377704539 0 0,0 -0.43522023389125153,0.02249591482951883 l -0.185713375262924 -4.312687024727776" fill="red" stroke="none" /><line stroke="#e1ed5e" stroke-width="0.3" x1="102.19456741930631" x2="102.32365962044197" y1="184.97166512339345" y2="189.96999836594603" /><path d="M 102.22038585953345 185.97133177190398 a86.0,86.0 0 0,1 -42.740103519485714,-10.115201625700543" fill="none" id="id103" stroke="none" /><text fill="#e1ed5e" style="font-size:6.75px; font-family:Arial;" text-anchor="middle"><textPath startOffset="22.20632615414155" xlink:href="#id103">July</textPath></text><path d="M 100.54218724476979 120.99299961872073 l 0.3465099416918389 13.41655146628962 a34.42102538509221,34.42102538509221 0 0,0 -0.5924355280666703,0.010199314882540875 l -0.11551472373250066 -13.42052825845132" fill="red" stroke="none" /><path d="M 99.45781275523022 120.99299961872073 l -0.3438061558689866 13.311863325254235 a34.316302334471914,34.316302334471914 0 0,0 -0.5903705542487924,-0.0203335555818544 l 0.572897061792422 -13.303972971246287" fill="red" stroke="none" /><path d="M 98.37488393609728 120.93702456842531 l -1.004982229997424 12.947590703002547 a33.98653511507548,33.98653511507548 0 0,0 -0.5828782734271934,-0.05029319005516347 l 1.227704821166159 -12.928373260668721" fill="red" stroke="none" /><path d="M 97.2962882734958 120.8252237178851 l -1.0867358631109951 8.370536418391465 a29.44078638325775,29.44078638325775 0 0,0 -0.5019954217533649,-0.0695719912623127 l 1.230659876051191 -8.350589861636548" fill="red" stroke="none" /><path d="M 95.86986931433489 120.58985236759428 l -1.6619933169045766 8.285499814755346 a29.450546075002865,29.450546075002865 0 0,0 -0.49618355556682253,-0.10398008837137616 l 1.8043683339007859 -8.255663745657428" fill="red" stroke="none" /><path d="M 94.81253420990036 120.34920634021253 l -2.079522083049269 8.157475281622116 a29.418361780308885,29.418361780308885 0 0,0 -0.48961898090700795,-0.12931282293520938 l 2.219631506767766 -8.120471109383324" fill="red" stroke="none" /><path d="M 93.76903079525671 120.05430185196036 l -3.0945616383152994 9.959810609725002 a31.42948412506215,31.42948412506215 0 0,0 -0.5152619294791447,-0.16497059838378778 l 3.2655449128853844 -9.905067164681508" fill="red" stroke="none" /><path d="M 92.06813273071674 119.44442032107085 l -5.016906279133759 12.298596420122816 a34.282500612409905,34.282500612409905 0 0,0 -0.5444853520968777,-0.22759492133556522 l 5.2278630907281 -12.210416455767279" fill="red" stroke="none" /><line stroke="#e1ed5e" stroke-width="0.3" x1="58.666819895761336" x2="56.23545636021788" y1="174.27360380694188" y2="178.64263932499728" /><path d="M 58.180547188652646 175.14741091055294 a86.0,86.0 0 0,1 -31.652253787137756,-30.449443065178592" fill="none" id="id104" stroke="none" /><text fill="#e1ed5e" style="font-size:6.75px; font-family:Arial;" text-anchor="middle"><textPath startOffset="22.20632615414155" xlink:href="#id104">August</textPath></text><path d="M 89.7882731507175 118.34994917583269 l -4.081011955834847 7.3333690844655495 a29.392434730914626,29.392434730914626 0 0,0 -0.43997848099290227,-0.24983126424076835 l 4.206639203748956 -7.262034654430147" fill="red" stroke="none" /><path d="M 89.1626897886671 117.98757091392108 l -4.3189546358546025 7.16852256431699 a29.36905519767266,29.36905519767266 0 0,0 -0.4307752323437772,-0.26461733151207784 l 4.441709068130689 -7.093116765976534" fill="red" stroke="none" /><path d="M 87.65650970185807 116.9893568818739 l -7.6414126436145535 10.51750220953091 a34.00034768448444,34.00034768448444 0 0,0 -0.4705243832431211,-0.3480826900739554 l 7.821321997276239 -10.384409570717187" fill="red" stroke="none" /><path d="M 87.07902340077011 116.55440617244103 l -5.028683607500604 6.442769268402105 a29.172939169614068,29.172939169614068 0 0,0 -0.3931991355891219,-0.3123811737160728 l 5.138840235807084 -6.355254180680902" fill="red" stroke="none" /><path d="M 85.70375840098266 115.38237550388516 l -11.042726915205108 11.881680287791168 a37.22085522360275,37.22085522360275 0 0,0 -0.4655516609794199,-0.4402081537255817 l 11.245614410575344 -11.689837497319656" fill="red" stroke="none" /><path d="M 83.95833913139862 113.55231037782056 l -10.153891126091729 8.5782067836091 a34.29237136943147,34.29237136943147 0 0,0 -0.3770593201113378,-0.45419224110865325 l 10.300046446096601 -8.402153285386683" fill="red" stroke="none" /><line stroke="#e1ed5e" stroke-width="0.3" x1="26.63291911575756" x2="22.317208475507996" y1="142.92168965132927" y2="145.44649492493687" /><path d="M 25.769776987707644 143.4266507060508 a86.0,86.0 0 0,1 -11.730757126820373,-40.83630448921669" fill="none" id="id105" stroke="none" /><text fill="#e1ed5e" style="font-size:6.75px; font-family:Arial;" text-anchor="middle"><textPath startOffset="21.46611528233685" xlink:href="#id105">September</textPath></text><path d="M 79.58551787078972 104.9243191809786 l -6.595315250923693 1.5909018504198815 a27.78447875350318,27.78447875350318 0 0,0 -0.10814702710599353,-0.4658945623019565 l 6.621722843960241 -1.4771386307693506" fill="red" stroke="none" /><line stroke="#e1ed5e" stroke-width="0.3" x1="15.007084014347285" x2="10.007500721073583" y1="101.09737516637583" y2="101.16192664675087" /><path d="M 14.007167355692545 101.11028546245083 a86.0,86.0 0 0,1 10.666146001902534,-42.60595125391555" fill="none" id="id106" stroke="none" /><text fill="#e1ed5e" style="font-size:6.75px; font-family:Arial;" text-anchor="middle"><textPath startOffset="22.20632615414155" xlink:href="#id106">October</textPath></text><path d="M 79.08570108090925 98.10471618934814 l -2.6275549782040355 -0.23811280650875846 a23.63832198037091,23.63832198037091 0 0,0 0.0402108954851334,-0.4049182299727012 l 2.623066957036673 0.28330656718589003" fill="red" stroke="none" /><path d="M 79.3925641242962 95.95851677861259 l -5.020692956849353 -0.9846468268654318 a26.11633532331618,26.11633532331618 0 0,0 0.0903136504428247,-0.4404014337993284 l 5.003000010491534 1.0709239168281626" fill="red" stroke="none" /><path d="M 80.02781315780177 93.51064311812611 l -7.955439479332175 -2.584878979023879 a29.36484408973153,29.36484408973153 0 0,0 0.16033583291898057,-0.4793837324977356 l 7.909766352641422 2.721435814443937" fill="red" stroke="none" /><path d="M 80.803312248108 91.48605970444005 l -7.72084643688292 -3.4242795655375047 a29.446132857401984,29.446132857401984 0 0,0 0.2094849534897704,-0.4615723267318607 l 7.660759166429798 3.5566739011114366" fill="red" stroke="none" /><line stroke="#e1ed5e" stroke-width="0.3" x1="26.266209847984243" x2="21.928928074336255" y1="57.711370442889674" y2="55.22380399835377" /><path d="M 25.398753493254645 57.213857153982495 a86.0,86.0 0 0,1 29.58750427330803,-30.492523968695096" fill="none" id="id107" stroke="none" /><text fill="#e1ed5e" style="font-size:6.75px; font-family:Arial;" text-anchor="middle"><textPath startOffset="21.46611528233685" xlink:href="#id107">November</textPath></text><path d="M 81.78341655067845 89.55222093294921 l -7.223923722780995 -4.143145681670282 a29.327708573917626,29.327708573917626 0 0,0 0.2549280700058269,-0.43575470778798014 l 7.151535978304843 4.266879801812154" fill="red" stroke="none" /><line stroke="#e1ed5e" stroke-width="0.3" x1="56.762969772571076" x2="54.21961505331055" y1="26.818313649435495" y2="22.513508569990535" /><path d="M 56.25429882871897 25.957352633546506 a86.0,86.0 0 0,1 42.265352541879196,-11.944610805530505" fill="none" id="id108" stroke="none" /><text fill="#e1ed5e" style="font-size:6.75px; font-family:Arial;" text-anchor="middle"><textPath startOffset="22.20632615414155" xlink:href="#id108">December</textPath></text><path d="M 91.56875222667455 80.76684994638697 l -0.7585253790306947 -1.7303289888510685 a22.88928535703107,22.88928535703107 0 0,0 0.3622133950816137,-0.15508087262823178 l 0.7286282261587728 1.7431293894420863" fill="red" stroke="none" /></svg>