<?xml version="1.0" encoding="utf-8" ?>
<svg baseProfile="full" height="200mm" version="1.1" viewBox="0,0,200,200" width="200mm" xmlns="http://www.w3.org/2000/svg" xmlns:ev="http://www.w3.org/2001/xml-events" xmlns:xlink="http://www.w3.org/1999/xlink"><defs /><rect fill="#1a1a1a" height="200" width="200" x="0" y="0" /><rect fill="#1a1a1a" height="200" width="180" x="10" y="0" /><text alignment-baseline="middle" fill="#e1ed5e" style="dominant-baseline: central; font-size:9.0px; font-family:Arial;" text-anchor="middle" x="100.0" y="100.0">2020</text><line stroke="#e1ed5e" stroke-width="0.3" x1="100.0" x2="100.0" y1="15.0" y2="10.0" /><path d="M 100.0 14.0 a86.0,86.0 0 0,1 42.35913384403234,11.155469271406648" fill="none" id="id61" stroke="none" /><text fill="#e1ed5e" style="font-size:6.75px; font-family:Arial;" text-anchor="middle"><textPath startOffset="22.145653131862478" xlink:href="#id61">January</textPath></text><line stroke="#e1ed5e" stroke-width="0.3" x1="143.13028292997686" x2="145.6673583964461" y1="26.7553504044142" y2="22.446841604673864" /><path d="M 143.63769802327073 25.89364864446614 a86.0,86.0 0 0,1 29.32050498858742,28.57503671076993" fill="none" id="id62" stroke="none" /><text fill="#e1ed5e" style="font-size:6.75px; font-family:Arial;" text-anchor="middle"><textPath startOffset="20.669276256404974" xlink:href="#id62">February</textPath></text><line stroke="#e1ed5e" stroke-width="0.3" x1="172.87174338648825" x2="177.1583165268699" y1="56.24261187166439" y2="53.66864786411523" /><path d="M 173.72905801456457 55.72781907015455 a86.0,86.0 0 0,1 12.242430191666344,42.057860355516425" fill="none" id="id63" stroke="none" /><text fill="#e1ed5e" style="font-size:6.75px; font-family:Arial;" text-anchor="middle"><textPath startOffset="22.145653131862474" xlink:href="#id63">March</textPath></text><path d="M 120.65975698304385 96.23510406497455 l 10.59011322283672 -1.929871404433288 a31.764520505352316,31.764520505352316 0 0,0 0.0931535139330375,0.5372847137827542 l -10.621681554261993 1.747793657729941" fill="#ff6709" stroke="none" /><line stroke="#e1ed5e" stroke-width="0.3" x1="184.99686870605535" x2="189.99668451229388" y1="99.2704041080226" y2="99.22748670261217" /><path d="M 185.99683186730306 99.26182062694052 a86.0,86.0 0 0,1 -10.086455211305974,41.156179273409016" fill="none" id="id64" stroke="none" /><text fill="#e1ed5e" style="font-size:6.75px; font-family:Arial;" text-anchor="middle"><textPath startOffset="21.40746469413373" xlink:href="#id64">April</textPath></text><path d="M 120.98066250479742 100.90099992219065 l 62.94198751439227 2.702999766571932 a84.0,84.0 0 0,0 -0.07423364217370931,1.4401128264930774 l -62.886312282761985 -3.7830843864417396" fill="#4dd2ff" stroke="none" /><line stroke="#e1ed5e" stroke-width="0.3" x1="174.33088141563837" x2="178.70328620479359" y1="141.23008692659167" y2="143.65538615756765" /><path d="M 175.20536237346943 141.71514677278685 a86.0,86.0 0 0,1 -30.301960400862466,31.631185727798858" fill="none" id="id65" stroke="none" /><text fill="#e1ed5e" style="font-size:6.75px; font-family:Arial;" text-anchor="middle"><textPath startOffset="22.145653131862474" xlink:href="#id65">May</textPath></text><path d="M 112.7482090630111 116.68781488649013 l 12.571616331090715 16.45664933170349 a41.70910052133611,41.70910052133611 0 0,0 -0.572699736692746,0.4297645591785567 l -12.287263605487203 -16.67003291814606" fill="#ffee16" stroke="none" /><path d="M 112.45986205192187 116.90419585922612 l 12.471064384366748 16.91939397465783 a42.01888054461294,42.01888054461294 0 0,0 -0.5843005258026099,0.4229885207094284 l -12.17878284819017 -17.130983266740333" fill="#fff216" stroke="none" /><path d="M 112.16784306229584 117.11559508785304 l 10.864934397317022 15.282890882838002 a39.75136136910426,39.75136136910426 0 0,0 -0.5595570263444307,0.3906142617770793 l -10.600982279798833 -15.467149960420203" fill="#ffd513" stroke="none" /><line stroke="#e1ed5e" stroke-width="0.3" x1="143.1302829299769" x2="145.66735839644613" y1="173.24464959558577" y2="177.55315839532614" /><path d="M 143.63769802327073 174.10635135553383 a86.0,86.0 0 0,1 -40.68552437913181,11.842963189579606" fill="none" id="id66" stroke="none" /><text fill="#e1ed5e" style="font-size:6.75px; font-family:Arial;" text-anchor="middle"><textPath startOffset="21.407464694133747" xlink:href="#id66">June</textPath></text><path d="M 109.71004243097381 118.62028667847754 l 4.544133550628141 8.713975249796956 a30.827640326142294,30.827640326142294 0 0,0 -0.47132933940613875,0.24066411905527818 l -4.39387698950842 -8.79069732052507" fill="#ff5908" stroke="none" /><path d="M 109.3889696526874 118.78422872680471 l 4.050913503668051 8.104540606713158 a30.06054516351321,30.06054516351321 0 0,0 -0.4635618787046868,0.22675134425643684 l -3.911191375701294 -8.172885701066818" fill="#ff4e07" stroke="none" /><path d="M 105.69591212413111 120.21278271476187 l 2.526909146629885 8.967109113988593 a30.31634669264187,30.31634669264187 0 0,0 -0.5021232969244183,0.1368559374198725 l -2.3726044487707716 -9.009165545552609" fill="#ff5207" stroke="none" /><path d="M 104.64783097203109 120.47920084513623 l 2.0821323300868744 9.174259225560203 a30.407566496058877,30.407566496058877 0 0,0 -0.5100327494792719,0.11115926388592508 l -1.9243371639884665 -9.208649947579847" fill="#ff5307" stroke="none" /><path d="M 102.875027216393 120.80226474461374 l 1.2831968847298496 9.284573434092033 a30.37282764687519,30.37282764687519 0 0,0 -0.5170933093165188,0.06694808145973212 l -1.1236257535225556 -9.30523311175216" fill="#ff5307" stroke="none" /><path d="M 101.80034050326958 120.92268563240118 l 1.3288704056774712 15.443488436602651 a36.500555849599884,36.500555849599884 0 0,0 -0.624734832394492,0.048358427126553596 l -1.0635665785077433 -15.464024630724257" fill="#ffa90f" stroke="none" /><line stroke="#e1ed5e" stroke-width="0.3" x1="101.45913802915013" x2="101.54496967792366" y1="184.9874750549273" y2="189.98673829345242" /><path d="M 101.47630435890484 185.9873277026323 a86.0,86.0 0 0,1 -42.54439059252881,-10.42667462771756" fill="none" id="id67" stroke="none" /><text fill="#e1ed5e" style="font-size:6.75px; font-family:Arial;" text-anchor="middle"><textPath startOffset="22.145653131862474" xlink:href="#id67">July</textPath></text><path d="M 99.63950707515114 120.99690560180557 l -0.3896241411947092 22.69365290949892 a43.696997364149524,43.696997364149524 0 0,0 -0.7498960031012041,-0.01931466097563182 l 0.7791334583666572 -22.68362053117324" fill="#f6ff19" stroke="none" /><path d="M 97.84075906011543 120.88869738790638 l -2.026817454834109 19.607620294944766 a40.7120968602011,40.7120968602011 0 0,0 -0.6945563178838513,-0.07782648412472919 l 2.3631096743187596 -19.569938050313066" fill="#ffe115" stroke="none" /><line stroke="#e1ed5e" stroke-width="0.3" x1="58.13341422392154" x2="55.67067388415222" y1="173.97424548756322" y2="178.32567169271397" /><path d="M 57.64086615596768 174.84453072859336 a86.0,86.0 0 0,1 -31.369924170532247,-30.572349798747897" fill="none" id="id68" stroke="none" /><text fill="#e1ed5e" style="font-size:6.75px; font-family:Arial;" text-anchor="middle"><textPath startOffset="22.145653131862474" xlink:href="#id68">August</textPath></text><path d="M 85.86807049272751 115.53346607816431 l -2.570444142468556 2.825368388110341 a24.819671401846517,24.819671401846517 0 0,0 -0.3126926732713676,-0.28942367014942644 l 2.6185665870538903 -2.7808269718285374" fill="#ff0000" stroke="none" /><line stroke="#e1ed5e" stroke-width="0.3" x1="26.387840678322732" x2="22.057713659400548" y1="142.50000000000003" y2="145.00000000000006" /><path d="M 25.521815274538298 143.00000000000003 a86.0,86.0 0 0,1 -11.493303480769221,-40.785679425670985" fill="none" id="id69" stroke="none" /><text fill="#e1ed5e" style="font-size:6.75px; font-family:Arial;" text-anchor="middle"><textPath startOffset="21.40746469413373" xlink:href="#id69">September</textPath></text><path d="M 79.13060592940153 102.33845913500099 l -9.470681894238089 1.0612096602014263 a30.52995180915171,30.52995180915171 0 0,0 -0.05388915577215641,-0.5213286977943734 l 9.487503442491912 -0.8984764401241214" fill="#ff5507" stroke="none" /><line stroke="#e1ed5e" stroke-width="0.3" x1="15.003131293944662" x2="10.003315487706104" y1="100.72959589197737" y2="100.7725132973878" /><path d="M 14.003168132696942 100.73817937305945 a86.0,86.0 0 0,1 10.791469493833604,-42.45332614584628" fill="none" id="id70" stroke="none" /><text fill="#e1ed5e" style="font-size:6.75px; font-family:Arial;" text-anchor="middle"><textPath startOffset="22.145653131862435" xlink:href="#id70">October</textPath></text><line stroke="#e1ed5e" stroke-width="0.3" x1="26.387840678322718" x2="22.05771365940052" y1="57.49999999999999" y2="54.99999999999999" /><path d="M 25.521815274538284 56.99999999999999 a86.0,86.0 0 0,1 29.574782752854787,-30.34633250058573" fill="none" id="id71" stroke="none" /><text fill="#e1ed5e" style="font-size:6.75px; font-family:Arial;" text-anchor="middle"><textPath startOffset="21.40746469413373" xlink:href="#id71">November</textPath></text><line stroke="#e1ed5e" stroke-width="0.3" x1="56.869717070023135" x2="54.33264160355391" y1="26.7553504044142" y2="22.446841604673864" /><path d="M 56.362301976729285 25.89364864446614 a86.0,86.0 0 0,1 42.16139366436587,-11.88097634709845" fill="none" id="id72" stroke="none" /><text fill="#e1ed5e" style="font-size:6.75px; font-family:Arial;" text-anchor="middle"><textPath startOffset="22.145653131862474" xlink:href="#id72">December</textPath></text></svg>